<svg version="1.0" xmlns="http://www.w3.org/2000/svg" width="512" height="512" viewBox="0 0 5120 5120"><path d="M80 4792c-52-26-80-74-80-140 0-70 28-117 84-143 40-18 123-19 2476-19s2436 1 2476 19c112 51 115 228 4 283-33 17-172 18-2480 18s-2447-1-2480-18zm3-623c-23-11-52-36-63-54-20-33-20-41-18-1128l3-1096 35-36c19-19 51-40 72-45 24-7 258-10 645-8 588 3 609 4 641 23 18 11 43 36 55 55l22 35v1080c0 1072 0 1080-21 1115-11 19-38 45-60 57l-39 23H740c-604 0-616 0-657-21zm1067-1169v-870H320v1740h830v-870zm765 1176c-37-17-70-52-84-89-8-20-11-582-11-1844V428l21-38c12-21 38-47 59-59 37-21 45-21 660-21s623 0 660 21c21 12 47 38 59 59l21 38-2 1830-3 1831-21 27c-11 15-33 37-48 48-27 21-39 21-654 23-507 2-633 0-657-11zm1811-9c-22-12-49-38-60-57-20-34-21-50-24-650l-2-615 22-44c13-25 36-54 51-65 28-21 40-21 660-24 705-3 676-5 724 67l23 34v635c0 621 0 635-20 668-12 18-40 42-64 53-41 21-56 21-657 21h-614l-39-23zm1074-717v-420h-830v840h830v-420z" fill="#3d6889"/><path d="M2140 2250V630h840v3240h-840V2250z" fill="#73d0f4"/></svg>