<svg version="1.0" xmlns="http://www.w3.org/2000/svg" width="512" height="512" viewBox="0 0 5120 5120"><path d="M565 5100c-16-11-38-34-47-52-17-31-18-169-18-2486 0-2723-6-2498 65-2542C597 0 610-1 958 2l360 3 27 25c51 48 55 65 55 259v181l1558 2 1557 3 36 23c20 12 45 39 54 59 36 76 33 83-291 662-164 294-298 537-297 540 1 4 135 245 299 536 262 468 298 536 302 582 6 67-23 117-82 144-39 18-101 19-1588 19H1400v985c0 1070 3 1011-55 1065l-27 25-361 3c-347 2-363 1-392-18zm535-2300V780H800v4040h300V2800zm0-2415v-85H800v170h300v-85z" fill="#3d6889"/><path d="M1400 1755V770h1411c775 0 1408 3 1406 8-41 69-487 870-505 905-17 36-23 60-19 86 3 23 100 208 262 496 141 253 259 463 262 468 2 4-631 7-1406 7H1400v-985z" fill="#73d0f4"/></svg>