<svg xmlns="http://www.w3.org/2000/svg" viewBox="0 0 480 480"><path fill="#fff" d="M384 0H96C82.745 0 72 10.745 72 24v432c0 13.255 10.745 24 24 24h288c13.255 0 24-10.745 24-24V24c0-13.255-10.745-24-24-24zm8 456a8 8 0 0 1-8 8H96a8 8 0 0 1-8-8V24a8 8 0 0 1 8-8h288a8 8 0 0 1 8 8v432z"/><path fill="#fff" d="M304.039 47.999A135.944 135.944 0 0 0 240 32c-75.084-.025-135.973 60.822-135.998 135.906A135.946 135.946 0 0 0 120 231.936V360c.035 30.913 25.087 55.965 56 56h128c30.913-.035 55.965-25.087 56-56V231.928c35.337-66.244 10.283-148.592-55.961-183.929zM304 400H176c-22.08-.026-39.974-17.92-40-40V255.632c.08.096.176.184.264.28 2.816 3.32 5.816 6.456 8.912 9.472.664.64 1.32 1.272 1.992 1.904 3.144 2.928 6.4 5.736 9.768 8.344.488.368.984.712 1.472 1.072a130.18 130.18 0 0 0 9.928 6.784c.568.352 1.12.728 1.696 1.072 3.648 2.192 7.416 4.184 11.256 6.024.8.392 1.648.8 2.472 1.144 3.936 1.792 7.928 3.448 12 4.856.36.128.728.216 1.088.336 3.904 1.312 7.888 2.4 11.912 3.368.8.184 1.6.392 2.344.56a134.94 134.94 0 0 0 12.736 2.136c.88.104 1.76.176 2.64.264a121.44 121.44 0 0 0 26.992 0c.88-.088 1.76-.16 2.64-.264a150 150 0 0 0 12.736-2.136c.8-.168 1.552-.376 2.336-.56a147.506 147.506 0 0 0 6.288-1.6 48.771 48.771 0 0 0 2.792 6.4c8.735 15.363 28.271 20.736 43.635 12.001s20.736-28.271 12.001-43.635a21.82 21.82 0 0 0-.212-.366 45.001 45.001 0 0 0-3.68-5.024c.272-.248.528-.512.8-.76.672-.632 1.328-1.264 1.992-1.904 3.096-3.016 6.096-6.152 8.912-9.464.08-.104.176-.184.264-.288L344 360c-.026 22.08-17.92 39.974-40 40zm-5.304-109.416c3.848-1.848 7.616-3.84 11.272-6.032.568-.344 1.112-.72 1.68-1.072a136.406 136.406 0 0 0 8.048-5.4c.787.943 1.506 1.94 2.152 2.984 4.368 7.682 1.681 17.45-6 21.817-7.61 4.327-17.284 1.735-21.711-5.817a29.162 29.162 0 0 1-1.6-3.656c1.256-.528 2.48-1.12 3.72-1.688.816-.368 1.632-.736 2.448-1.128l-.009-.008zm-11.16-12.472c-3.84-12.824-8.544-30.176-12.84-46.728 12.28 12.096 25.056 24.944 34.28 34.728a119.443 119.443 0 0 1-21.44 12zm57.48-51.976l-.024-.024a120.014 120.014 0 0 1-23.568 29.936c-18.448-19.808-48.264-48.576-55.896-55.896a8 8 0 0 0-13.304 7.68c2.504 10.176 12.352 49.752 20.248 75.656a119.889 119.889 0 0 1-112.328-25.944c-1.456-1.304-2.856-2.672-4.248-4.04-.56-.552-1.152-1.064-1.696-1.6a120.032 120.032 0 0 1-19.2-25.768c-32.077-57.994-11.067-131.011 46.928-163.088 57.994-32.077 131.011-11.067 163.088 46.928a120 120 0 0 1 0 116.16z"/><path fill="#fff" d="M240 64c-57.41.066-103.934 46.59-104 104a8 8 0 0 0 16 0c.057-48.577 39.423-87.943 88-88a8 8 0 0 0 0-16zm0 80c-13.255 0-24 10.745-24 24s10.745 24 24 24 24-10.745 24-24-10.745-24-24-24zm0 32a8 8 0 1 1 0-16 8 8 0 0 1 0 16z"/><circle fill="#fff" cx="120" cy="48" r="16"/><circle fill="#fff" cx="360" cy="48" r="16"/><circle fill="#fff" cx="120" cy="432" r="16"/><circle fill="#fff" cx="360" cy="432" r="16"/></svg>