<svg version="1.0" xmlns="http://www.w3.org/2000/svg" width="512" height="512" viewBox="0 0 5120 5120"><path d="M490 4675c-110-25-223-87-304-169C57 4377 0 4240 0 4061c0-117 19-199 64-289 85-165 229-281 407-327 83-22 226-22 313 0 37 9 69 15 70 14 23-30 656-981 656-985 0-3-15-25-34-48-82-99-128-238-129-382 0-114 15-177 65-283 33-68 56-101 122-166 85-84 155-126 272-161 91-28 267-26 359 4 199 66 347 214 412 410 24 74 28 103 28 192-1 104-23 209-61 281-13 26-12 28 170 192 101 91 200 180 220 197l36 32 75-37c122-60 257-81 400-61l50 7 291-553 291-553-54-60c-301-333-161-871 265-1018 229-79 477-23 646 147 129 129 186 266 186 445 0 117-19 199-64 289-65 126-155 216-277 277-119 60-205 73-417 62l-33-2-289 548-289 549 57 67c66 79 113 169 137 261 21 82 21 234 0 315-54 209-215 376-430 446-91 30-259 33-350 5-171-51-323-176-395-327-43-91-70-194-70-276 0-74 25-196 54-259l25-54-221-199-221-199-36 22c-44 27-130 61-194 77-61 15-258 7-312-13l-40-14-332 494-332 494 36 46c224 291 152 715-156 919-128 85-330 122-481 88zm1592-2305c51-15 127-69 165-118 134-176 73-427-127-521-79-37-184-41-265-10-153 57-251 235-215 390 48 204 239 316 442 259zm2497-975c202-53 312-281 227-470-99-220-386-274-555-104-129 129-135 334-14 469 90 100 216 139 342 105z" fill="#3d6889"/><path d="M567 4400c-108-19-207-95-255-198-23-49-27-70-27-147 0-76 4-99 26-145 90-190 325-258 505-145 184 117 213 374 60 533-51 54-113 87-191 101-32 6-61 10-64 10-3-1-27-5-54-9zm2710-791c-273-42-387-387-194-582 80-81 132-102 247-102 81 0 103 4 150 26 202 95 263 352 125 532-73 96-202 145-328 126z" fill="#73d0f4"/></svg>