<svg xmlns="http://www.w3.org/2000/svg" viewBox="0 0 471.429 471.429"><g fill="#fff"><path d="M375.192 227.051c-12.921 0-24.394 6.316-31.493 16.024-7.099-9.708-18.571-16.024-31.492-16.024s-24.394 6.316-31.493 16.024c-7.099-9.708-18.571-16.024-31.492-16.024a38.799 38.799 0 0 0-23.993 8.275V128.993c0-21.5-17.492-38.993-38.992-38.993s-38.993 17.492-38.993 38.993v274.936c0 37.22 30.28 67.5 67.5 67.5h131.939c37.22 0 67.5-30.28 67.5-67.5V266.043c.001-21.501-17.491-38.992-38.991-38.992zm23.992 176.878c0 28.949-23.551 52.5-52.5 52.5H214.745c-28.949 0-52.5-23.551-52.5-52.5V128.993c0-13.229 10.763-23.993 23.993-23.993s23.992 10.763 23.992 23.993v152.05a7.5 7.5 0 0 0 15 0v-15c0-13.229 10.763-23.992 23.993-23.992s23.992 10.763 23.992 23.992v15a7.5 7.5 0 0 0 15 0v-15c0-13.229 10.763-23.992 23.993-23.992s23.992 10.763 23.992 23.992v15a7.5 7.5 0 0 0 15 0v-15c0-13.229 10.763-23.992 23.993-23.992s23.992 10.763 23.992 23.992v137.886z"/><path d="M255.229 128.993c0 14.897-4.677 29.083-13.525 41.024a7.501 7.501 0 0 0 12.052 8.93c10.777-14.544 16.474-31.818 16.474-49.955 0-46.313-37.679-83.993-83.992-83.993s-83.993 37.679-83.993 83.993c0 18.137 5.697 35.411 16.474 49.956a7.488 7.488 0 0 0 6.032 3.035c1.552 0 3.117-.48 4.459-1.475a7.5 7.5 0 0 0 1.561-10.491c-8.849-11.941-13.526-26.127-13.526-41.025 0-38.042 30.95-68.993 68.993-68.993s68.991 30.951 68.991 68.994z"/><path d="M128.546 227.322c-34.728-20.423-56.302-58.101-56.302-98.329 0-25.641 8.316-49.858 24.048-70.033a7.5 7.5 0 0 0-11.828-9.224c-17.807 22.835-27.22 50.242-27.22 79.257 0 22.883 6.073 45.364 17.563 65.013a129.765 129.765 0 0 0 46.135 46.246 7.498 7.498 0 0 0 10.267-2.663 7.5 7.5 0 0 0-2.663-10.267zM116.204 39.048C136.379 23.316 160.596 15 186.237 15c62.855 0 113.992 51.137 113.992 113.993 0 28.448-10.538 55.69-29.673 76.71a7.5 7.5 0 0 0 11.093 10.098c21.654-23.788 33.58-54.617 33.58-86.808C315.229 57.866 257.364 0 186.237 0c-29.015 0-56.421 9.413-79.257 27.22a7.5 7.5 0 0 0-1.303 10.526 7.499 7.499 0 0 0 10.527 1.302z"/></g></svg>