<svg version="1.0" xmlns="http://www.w3.org/2000/svg" width="512" height="512" viewBox="0 0 5120 5120"><g fill="#3d6889"><path d="M2390 5114c-321-58-535-168-738-378-231-239-352-539-352-871 0-345 128-653 373-899 54-54 97-99 95-100-44-26-97-69-124-101-99-121-116-299-44-434 18-33 26-58 21-65-5-6-351-469-769-1028C299 499 89 210 84 185c-8-47 2-97 27-129C157-2 121 0 957 0h769l31 22c18 13 204 253 413 533 209 281 385 510 390 510s181-229 390-510c209-280 395-520 413-532l31-23h1543l34 23c62 41 85 121 55 190-8 18-360 484-783 1036l-770 1004 34 56c44 72 56 119 56 211-1 147-74 267-211 346-2 1 41 46 95 100 379 380 480 940 258 1429-130 285-410 545-700 649-152 54-229 68-415 71-96 2-186 1-200-1zm295-310c92-9 221-51 312-99 239-127 408-335 483-596 27-93 37-292 21-398-40-257-196-496-419-645-84-55-155-88-271-123-78-24-101-27-251-27s-173 3-251 27c-116 35-187 68-271 123-223 149-379 388-419 645-16 106-6 305 21 398 110 383 435 658 825 700 79 8 101 8 220-5zm32-2996c-128-172-435-582-680-910l-448-598H540l563 753c310 413 616 823 681 910l118 157h1048l-233-312z"/><path d="M1905 4010c-46-10-81-37-100-77-15-30-17-55-12-132 15-268 176-508 422-630 103-51 177-71 295-77 84-5 99-3 128 15 96 61 97 217 1 267-17 8-65 19-107 24-249 28-413 197-436 449-9 99-50 150-131 163-16 3-44 2-60-2z"/></g><path d="M1886 2574c-46-46-31-114 29-140 51-21 1239-21 1290 0 60 26 75 94 29 140l-27 26H1913l-27-26zm1119-892c-137-185-250-342-249-348 1-5 174-241 385-522l384-512h529c421 0 526 3 518 13-5 6-301 392-656 857-356 465-650 846-654 847s-119-150-257-335z" fill="#73d0f4"/></svg>