<svg version="1.0" xmlns="http://www.w3.org/2000/svg" width="512" height="512" viewBox="0 0 5120 5120"><g fill="#3d6889"><path d="M1684 5100c-56-36-67-80-62-242 6-165 30-253 99-371 45-76 147-189 209-232l40-28-74-32c-332-144-593-405-690-691-50-149-51-163-51-874 0-621 1-667 18-698 51-94 203-96 251-4 13 24 15 130 18 698 4 749 1 716 79 871 48 96 160 222 267 301 179 133 404 216 660 243 235 24 523-35 742-153 176-94 338-249 409-391 78-155 75-122 79-871 3-568 5-674 18-698 48-92 200-90 251 4 17 31 18 77 18 698 0 711-1 725-51 874-97 286-358 547-690 691l-74 32 40 28c62 43 164 156 209 232 70 119 93 206 99 371 5 164-6 207-63 242-32 20-52 20-876 20-825 0-845-1-875-20z"/><path d="M2389 3835c-107-18-181-41-276-85-199-93-331-216-418-389-75-148-69-47-73-1406-3-1364-6-1308 67-1460 108-228 324-393 616-471 101-27 409-27 510 0 292 78 508 243 616 471 73 152 70 96 67 1460-4 1359 2 1258-73 1406-83 165-207 285-392 378-190 95-434 132-644 96zm361-300c36-9 106-36 157-61 150-74 271-210 290-327l6-37H1917l6 37c11 63 60 145 125 210 171 169 442 238 702 178zm460-885v-170h-222c-203 0-226-2-255-20-46-28-67-65-67-119 0-55 24-101 68-127 27-17 57-19 254-22l222-3v-327l-224-4c-208-3-227-4-252-24-49-36-68-70-68-123 0-56 20-93 67-121 29-18 52-20 255-20h222v-340h-210c-169 0-217-3-250-16-109-44-112-215-4-260 25-11 88-14 250-14h216l-4-122c-3-113-6-129-35-191-73-154-257-286-457-327-76-16-236-16-312 0-200 41-384 173-457 327-29 62-32 78-35 191l-4 122h216c162 0 225 3 250 14 108 45 105 216-4 260-33 13-81 16-250 16h-210v340h223c202 0 225 2 254 20 47 28 67 65 67 121 0 53-19 87-68 123-25 20-44 21-252 24l-224 4v327l223 3c196 3 226 5 253 22 44 26 68 72 68 127 0 54-21 91-67 119-29 18-52 20-254 20h-223v340h1300v-170z"/></g><path d="M1913 4786c15-148 135-291 314-376 204-97 462-97 666 0 179 85 299 228 314 376l6 54H1907l6-54z" fill="#73d0f4"/></svg>