<svg version="1.0" xmlns="http://www.w3.org/2000/svg" width="54" height="86" viewBox="0 0 540 860"><g fill="#fff"><path d="M22 837C0 814 0 810 0 429V43l23-21C45 1 54 0 271 0c223 0 226 0 247 23 22 23 22 27 22 408v386l-23 21c-22 21-31 22-248 22-223 0-226 0-247-23zm456-32c6-5 13-20 17-32l6-23H270c-208 0-231 2-226 16 3 9 6 20 6 25s10 14 23 19c29 12 393 8 405-5zm22-380V150H40v550h460V425zm-7-346c-9-33-44-39-223-39S56 46 47 79c-5 21-3 21 223 21s228 0 223-21z"/><path d="M252 788c2-13 10-23 18-23s16 10 18 23c3 17-2 22-18 22s-21-5-18-22zm-9-238c-40-24-61-59-42-71 9-5 23 2 42 21 56 57 141 45 174-24 51-109-85-210-169-125-28 28-58 33-58 10 0-18 71-70 105-77 53-10 119 19 146 63s29 121 5 158c-41 63-139 84-203 45z"/><path d="M265 480c-3-5-3-14 0-20 4-6-30-10-94-10-94 0-101-1-101-20s7-20 99-20c87 0 99-2 97-17-2-30 29-25 53 8l23 31-28 29c-30 31-39 35-49 19z"/></g></svg>