<svg version="1.0" xmlns="http://www.w3.org/2000/svg" width="512" height="512" viewBox="0 0 5120 5120"><g fill="#3d6889"><path d="M462 5086c-165-40-326-172-400-327-22-46-45-108-51-137-8-36-11-399-11-1155 0-1081 0-1104 21-1177 53-194 214-360 409-421 36-11 106-23 156-26l91-6 7-93c50-714 544-1363 1226-1612C2268 1 2695-18 3050 80c646 179 1145 674 1324 1315 34 121 54 236 62 349l7 93 91 6c50 3 120 15 156 26 195 61 356 227 409 421 21 73 21 96 21 1177 0 756-3 1119-11 1155-35 168-171 340-330 416-46 22-108 45-137 51-83 17-4109 14-4180-3zm4077-306c77-13 124-36 174-87 49-49 72-94 86-168 14-75 15-2013 1-2098-19-118-90-207-196-247-54-20-68-20-2044-20s-1990 0-2044 20c-106 40-177 129-196 247-14 85-13 2023 1 2098 14 74 37 119 86 168 48 49 98 75 165 86 78 13 3887 13 3967 1zM3426 1813c-2-16-7-46-11-68-9-59-44-162-78-230-109-219-299-377-544-452-78-23-104-26-233-26s-155 3-233 26c-245 75-435 233-544 452-31 62-68 168-77 220-2 17-7 47-11 68l-6 37h1743l-6-27z"/><path d="M2215 4330c-80-41-80-40-83-349l-3-274-54-59c-185-200-216-524-73-766 73-124 220-240 363-285 100-32 290-32 390 0 258 82 437 313 452 583 9 174-51 348-162 468l-54 59-3 274c-3 309-3 309-84 349-38 19-60 20-345 20s-306-1-344-20z"/></g><path d="M2440 3810c0-250-1-252-75-318-95-84-135-164-135-272 0-165 104-293 264-327 208-43 396 112 396 327 0 108-40 188-135 272-74 66-75 68-75 318v220h-240v-220zM995 1783c40-406 202-747 483-1015 265-252 585-396 954-429 563-50 1116 218 1434 696 147 220 231 464 259 748l5 57h-390v-39c0-21-7-76-16-121-90-478-475-860-954-946-47-8-141-15-210-15s-163 7-210 15c-479 86-864 468-954 946-9 45-16 100-16 121v39H990l5-57z" fill="#73d0f4"/></svg>