<svg xmlns="http://www.w3.org/2000/svg" viewBox="0 0 512 512"><circle cx="256" cy="256" r="256" fill="#ffd15d"/><path d="M512 256c0-2.648-.053-5.282-.133-7.911l-104.15-104.15-54.851-14.112-227.3 285.863 93.672 93.672A258.207 258.207 0 0 0 256 512c141.384 0 256-114.616 256-256z" fill="#f9b54c"/><path fill="#324a5e" d="M209.692 324.265l-21.942-21.94 60.34-60.34 21.94 21.941z"/><path fill="#2b3b4e" d="M257.89 251.81l12.121 12.12-60.339 60.339-12.12-12.12z"/><circle cx="319.388" cy="192.612" r="85.333" fill="#fff"/><path d="M379.725 132.275c-.386-.386-.788-.743-1.177-1.121L257.926 251.776c.376.391.734.793 1.121 1.177 33.325 33.325 87.355 33.325 120.679 0 33.324-33.322 33.324-87.353-.001-120.678z" fill="#e6f3ff"/><path d="M319.386 293.462c-26.938 0-52.262-10.49-71.311-29.537-19.047-19.049-29.537-44.373-29.537-71.311s10.49-52.262 29.537-71.311c19.049-19.047 44.373-29.537 71.311-29.537 26.938 0 52.262 10.49 71.311 29.537 39.321 39.321 39.321 103.3 0 142.622-19.049 19.047-44.373 29.537-71.311 29.537zm0-170.666c-18.649 0-36.181 7.263-49.369 20.449-13.188 13.186-20.449 30.718-20.449 49.369s7.263 36.181 20.449 49.369 30.718 20.449 49.369 20.449 36.181-7.263 49.369-20.449c27.222-27.222 27.222-71.516 0-98.737-13.187-13.188-30.72-20.45-49.369-20.45z" fill="#4a6475"/><path d="M390.697 121.303c-.384-.384-.788-.743-1.177-1.121l-21.944 21.944c.391.374.793.736 1.177 1.121 27.222 27.22 27.222 71.515 0 98.737-13.186 13.186-30.718 20.449-49.369 20.449s-36.181-7.263-49.369-20.449c-.384-.384-.746-.784-1.121-1.177l-21.944 21.944c.378.39.736.793 1.121 1.177 19.049 19.047 44.373 29.537 71.311 29.537 26.938 0 52.262-10.49 71.311-29.537 39.323-39.325 39.323-103.305.004-142.625z" fill="#324a5e"/><path d="M237.715 303.542l-29.256-29.256c-6.061-6.058-15.882-6.058-21.944 0L96.31 364.491c-6.06 6.06-6.06 15.884 0 21.944l29.256 29.256a15.472 15.472 0 0 0 10.971 4.544c3.97 0 7.94-1.515 10.971-4.544l90.205-90.205c6.059-6.06 6.059-15.885.002-21.944z" fill="#fc6f58"/><path d="M221.937 287.765L109.789 399.913l15.777 15.777c3.031 3.029 7.001 4.544 10.971 4.544s7.94-1.515 10.971-4.544l90.205-90.205c6.06-6.06 6.06-15.884 0-21.944l-15.776-15.776z" fill="#f1543f"/></svg>