<svg baseProfile="tiny" xmlns="http://www.w3.org/2000/svg" width="24" height="24"><g fill="#fff"><path d="M13.299 10.428h-.896a.148.148 0 0 0-.149.148v.897c0 .082.066.148.149.148h.299v.684l-.586.585v-2.765h.723c.06 0 .113-.036.138-.091a.15.15 0 0 0-.03-.162l-.871-.9a.152.152 0 0 0-.107-.046c-.051.006-.078.017-.107.045l-.882.9a.147.147 0 0 0-.03.163.147.147 0 0 0 .137.091h.734v3.106a.094.094 0 0 0 0 .047v.506l-.598-.595v-.711a.593.593 0 1 0-.3 0v.767c0 .002.002.002.002.003a.142.142 0 0 0 .043.107l.852.853v.405a.595.595 0 1 0 .745.575.595.595 0 0 0-.447-.575v-1.3l.84-.841a.156.156 0 0 0 .042-.105v-.746h.299a.149.149 0 0 0 .148-.148v-.897a.148.148 0 0 0-.148-.148zm-2.524 1.479a.297.297 0 0 1 .593 0 .296.296 0 0 1-.593 0zm1.491 3.282a.3.3 0 1 1-.299-.298.3.3 0 0 1 .299.298zm-.827-5.361l.527-.539.52.539h-1.047zm1.71 1.496h-.598v-.599h.598v.599z"/><path d="M17.401 6.963h-.596c.088-.183.141-.384.141-.6V2c0-.772-.629-1.4-1.4-1.4H8.455c-.771 0-1.4.628-1.4 1.4v4.363c0 .216.053.417.141.6H6.6c-.771 0-1.4.628-1.4 1.4v7.986c0 .772.629 1.4 1.4 1.4h10.802c.771 0 1.4-.628 1.4-1.4V8.363c0-.772-.629-1.4-1.401-1.4zM7.855 2a.6.6 0 0 1 .6-.6h7.091a.6.6 0 0 1 .6.6v4.363a.6.6 0 0 1-.6.6H8.455a.6.6 0 0 1-.6-.6V2zm10.146 14.35a.6.6 0 0 1-.6.6H6.6a.6.6 0 0 1-.6-.6V8.363a.6.6 0 0 1 .6-.6h10.801a.6.6 0 0 1 .6.6v7.987zm-3.312 2.432H9.235a.4.4 0 1 0 0 .8h5.454a.4.4 0 1 0 0-.8zm-.908 1.818h-3.637a.4.4 0 1 0 0 .8h1.414V23a.4.4 0 0 0 .8 0v-1.6h1.422a.4.4 0 0 0 .001-.8z"/><path d="M9.217 5.075h1.855a.4.4 0 0 0 .4-.4V2.818a.4.4 0 0 0-.4-.4H9.217a.4.4 0 0 0-.4.4v1.856a.4.4 0 0 0 .4.401zm.4-1.857h1.055v1.057H9.617V3.218zm3.275 1.838h1.817a.4.4 0 0 0 .4-.4V2.837a.4.4 0 0 0-.4-.4h-1.817a.4.4 0 0 0-.4.4v1.818a.4.4 0 0 0 .4.401zm.4-1.819h1.017v1.019h-1.017V3.237z"/></g></svg>