<svg version="1.0" xmlns="http://www.w3.org/2000/svg" width="145" height="220" viewBox="0 0 1450 2200"><path d="M665 2191c-94-24-181-104-211-193-47-144 35-315 174-362 230-79 446 125 378 356-20 69-86 147-151 177-50 24-143 34-190 22zm-181-803c3-13 7-42 11-66 7-57 53-145 107-207 24-27 105-111 180-185 152-150 177-190 178-280 0-110-67-164-205-164-68-1-89 3-137 27-64 31-127 97-164 170-13 26-28 47-32 47s-100-53-214-118L1 494l19-42c46-102 158-235 254-301 69-48 181-98 271-122C659-1 862-2 974 29c248 67 418 228 466 442 8 34 11 97 8 165-8 197-55 284-273 499-162 159-184 187-194 238l-7 32-247 3-247 2 4-22z" fill="#e2e2e2"/></svg>