<svg version="1.0" xmlns="http://www.w3.org/2000/svg" width="66" height="34" viewBox="0 0 660 340"><path d="M36 305c-25-22-36-40-33-50 9-22 35-18 61 10 13 14 27 25 31 25s20-11 37-25c37-31 49-31 86 0 17 14 33 25 37 25s18-11 31-25c29-32 59-32 88 0 13 14 27 25 31 25s20-11 37-25c16-14 36-25 43-25s27 11 43 25c37 31 39 31 68 0 26-28 52-32 61-10 8 22-65 84-99 85-17 0-34-9-46-25-11-14-22-25-25-25-4 0-17 11-31 25-32 32-63 32-98-2l-28-27-28 27c-36 35-76 35-98 2-20-31-31-31-56 0-27 35-64 32-112-10zm0-120c-25-22-36-40-33-50 9-22 35-18 63 10 14 14 28 25 33 25 4 0 18-11 31-25 30-32 60-32 90 0 29 31 37 31 66 0 29-32 59-32 88 0 13 14 28 25 33 25s20-11 33-25 33-25 45-25 32 11 45 25c29 31 33 31 64 0 28-28 54-32 63-10 7 21-64 84-95 85-13 0-33-11-46-25-29-31-33-31-62 0-30 32-61 32-96-2l-28-27-28 27c-35 34-66 34-94 2-12-14-26-25-31-25s-20 11-33 25c-31 34-61 31-108-10zM48 70C31 54 13 40 9 40c-5 0-9-9-9-20C0-9 38-6 72 27l29 27 25-27c14-15 36-27 49-27s35 12 49 27l25 27 29-27c36-34 74-35 100-2 11 14 23 25 27 25s18-11 31-25c30-33 67-32 98 2l25 27 29-27c34-33 72-36 72-7 0 11-4 20-9 20-4 0-22 14-39 30-39 37-61 38-92 5-29-31-41-31-70 0-13 14-32 25-42 25s-30-11-44-25c-31-31-37-31-68 0-32 32-56 32-86 0-13-14-29-25-35-25s-22 11-35 25c-31 33-53 32-92-5z" fill="#1c24ff"/></svg>