<svg version="1.0" xmlns="http://www.w3.org/2000/svg" width="145" height="19" viewBox="0 0 1450 190"><path d="M101 142c-25-27-59-54-74-60C3 72-1 65 2 37 5 7 7 5 49 2s46-1 96 52c28 31 58 56 66 56s38-25 66-55c49-51 55-55 99-55 54 0 90 19 124 66 41 56 62 55 123-10C674 1 677 0 730 0s56 1 105 55c29 30 59 55 68 55s31-18 49-41c74-93 172-94 238-3 41 56 62 55 123-10 48-51 57-56 95-56h42v40c0 35-3 40-27 47-16 3-48 28-71 55-44 48-44 48-107 48h-64l-43-50c-24-28-52-50-62-50-11 0-41 23-66 50-46 50-46 50-110 50-63 0-63 0-109-50-25-27-54-50-63-50s-38 23-64 50c-47 50-48 50-110 50h-63l-43-50c-24-28-52-50-62-50-11 0-41 23-66 50-46 50-46 50-110 50-62 0-64 0-109-48z" fill="#1c25ff"/></svg>