<svg version="1.0" xmlns="http://www.w3.org/2000/svg" width="52" height="54" viewBox="0 0 520 540"><path d="M32 510c-10-21-11-38-4-58 9-27-2-72-19-72-11 0-9-123 2-137 7-7 6-13-1-18-5-3-10-20-10-38 0-24 3-28 12-19 16 16 28 15 28-2 0-8 8-21 19-28 10-7 22-32 25-55 7-36 5-44-13-55C47 13 44 0 64 0c8 0 30 15 50 33 28 26 42 33 65 29 18-2 31-11 34-23 7-26 49-25 72 1 11 12 28 20 39 18 26-3 88 21 81 32-3 4 9 10 25 14 20 4 34 14 40 31 5 14 14 25 20 25 5 0 10 11 10 25s4 25 9 25c12 0 13 118 0 125-5 4-9 18-9 33 0 17-8 32-20 40-12 7-25 24-30 37-5 14-22 30-37 36-16 6-37 15-48 20s-35 11-53 12c-18 2-38 9-44 15-15 15-58 16-58 2 0-5-19-13-42-16-24-4-52-17-65-31l-24-23-8 23c-7 17-5 23 10 25 30 5 23 32-9 32-21 0-30-7-40-30zm213-30c-14-16-20-17-27-8-13 22-9 28 19 28 26 0 26 0 8-20zm106-7c13-16 12-17-3-4-17 13-22 21-14 21 2 0 10-8 17-17zm-172-7c20-24-10-38-37-16-15 13-18 20-10 23 23 9 35 7 47-7zm140-19c14-17 4-27-25-27-13 0-24 8-27 20-4 16 0 20 18 20 12 0 28-6 34-13zm96 2c11-17 2-18-19-3-17 12-17 14-4 14 9 0 20-5 23-11zm-273-34c17-10 28-78 15-91-4-4-7 7-7 24 0 33-19 46-21 15-1-15-2-14-6 2-3 11-16 32-30 46l-25 27 29-7c15-3 36-11 45-16zm106-5c1-9-9-20-27-27-26-9-30-8-35 10-3 11-3 24 0 29 9 15 59 4 62-12zm136 14c23-9 20-34-3-34-22 0-35 15-26 30 7 12 8 12 29 4zM80 396c0-2 3-11 6-19 4-12 0-14-15-10-24 6-29 33-6 33 8 0 15-2 15-4zm390-25c0-5-6-14-14-20-17-14-39 9-30 33 5 12 10 13 25 5 10-5 19-13 19-18zm-133 3c8-21-21-48-42-40-9 3-14 10-11 15 4 5 1 11-6 13-6 2-8 10-4 16 11 17 56 15 63-4zm57-20c16-6 23-54 8-54-14 0-32 23-32 42 0 20 1 21 24 12zM66 342c6-4 14-17 18-29 11-33-14-29-46 7-26 29-26 30-5 30 12 0 27-4 33-8zm204-17c14-15 36-26 54-27l31-1-31-4c-20-3-43-17-64-39-35-39-53-40-58-3-2 13-6 31-9 39-24 58 32 83 77 35zm-150 10c0-3-2-5-5-5s-5 2-5 5 2 5 5 5 5-2 5-5zm375-15c3-5 4-10 1-10s-8 5-11 10c-3 6-4 10-1 10s8-4 11-10zm-361-16c3-8 2-12-4-9s-10 10-10 16c0 14 7 11 14-7zm335-8c7-9 8-17 2-20-15-10-40 5-34 20 7 18 17 18 32 0zm41-1c0-3-2-5-5-5s-5 2-5 5 2 5 5 5 5-2 5-5zM55 260c-3-5-10-10-16-10-5 0-9 5-9 10 0 6 7 10 16 10 8 0 12-4 9-10zm115 5c0-3-2-5-5-5s-5 2-5 5 2 5 5 5 5-2 5-5zm175-5c-3-5-12-7-20-3-21 7-19 13 6 13 11 0 18-4 14-10zm82-17c2-5-5-21-16-34-15-18-22-21-31-12-9 8-7 13 10 18 16 5 20 13 17 27-6 20 14 21 20 1zm-47 3c0-3-5-8-12-12s-8-3-4 4c7 12 16 16 16 8zm110-1c0-3-2-5-5-5s-5 2-5 5 2 5 5 5 5-2 5-5zm-380-20c0-3-2-5-5-5s-5 2-5 5 2 5 5 5 5-2 5-5zm224-11c21-21 20-31-5-45-17-9-24-7-40 10-11 12-25 21-31 21-7 0-6 5 2 15 16 20 54 19 74-1zm136-14c0-10-7-21-16-24-23-9-26-4-12 26 14 29 28 28 28-2zm-387 0c-3-11-9-17-15-14-5 3-4 12 3 20 16 19 18 18 12-6zm127-9c0-4 15-12 34-19s36-21 39-32c5-18 3-19-16-5-12 8-32 15-44 15-15 0-23 6-23 18 0 10-6 24-12 31-11 10-10 11 5 6 9-4 17-10 17-14zm-43-8c-4-3-7 0-7 7s3 10 7 7c3-4 3-10 0-14zm-49-73c0-32-1-33-8-10-4 14-8 39-8 55-1 25 1 27 8 10 5-11 8-36 8-55zm22 55c0-3-2-5-5-5s-5 2-5 5 2 5 5 5 5-2 5-5zm258-22c-5-26-38-29-38-4 0 15 6 21 21 21 14 0 19-5 17-17zm-195-20c21-7 17-27-7-31-21-4-46 15-46 35 0 11 5 13 18 8 9-4 25-10 35-12zm127-2c0-11-4-23-10-26-6-4-10 5-10 19s5 26 10 26c6 0 10-9 10-19zm107 12c-4-3-10-3-14 0-3 4 0 7 7 7s10-3 7-7zM270 90c0-5-7-7-15-4-8 4-12 10-9 15 6 11 24 2 24-11zm110 6c0-2-7-7-16-10-8-3-12-2-9 4 6 10 25 14 25 6zM230 65c0-3-2-5-5-5s-5 2-5 5 2 5 5 5 5-2 5-5zm30-10c0-3-2-5-5-5s-5 2-5 5 2 5 5 5 5-2 5-5z" fill="#fff"/></svg>