<svg version="1.0" xmlns="http://www.w3.org/2000/svg" width="167" height="132" viewBox="0 0 1670 1320"><path d="M418 1309c-7-5-27-6-44-3-18 3-35 1-38-5-4-6-25-11-47-11-23 0-42-5-45-13s-17-11-39-9c-21 3-35 0-35-7 0-6-17-11-38-11s-43-5-49-11c-8-8-17-8-31 0-52 28-69 2-26-39 15-13 21-26 15-28-18-6-13-23 14-44 17-13 24-26 20-37-3-11 3-25 15-36s18-25 15-36c-4-11 4-24 25-39 22-16 29-27 25-41-5-13 3-24 29-41 20-13 36-31 36-41s10-21 23-26 31-20 40-34c10-15 30-27 51-31 20-4 40-14 45-24 8-14 25-17 93-18 91-1 111-18 49-39-18-6-41-20-50-32-10-11-32-28-50-38-24-12-32-22-28-35 3-12-7-30-29-51-19-18-34-40-34-48-1-9-14-32-30-51-32-36-37-56-18-62 8-3 7-11-5-28-21-31-22-50-1-50 13 0 12-5-5-26-25-32-27-54-4-54 12 0 5-12-25-43-23-23-42-48-42-54 0-16 40-23 88-14 33 7 42 5 42-5 0-18 9-18 53 1 45 19 48 19 41 0-8-19-3-19 32 0 26 13 29 13 32 0 4-19 6-19 44 1 21 11 34 12 41 5s19-5 39 5c17 9 37 13 46 9 9-3 26 5 43 21 15 15 34 24 42 21s25 5 37 18 32 25 44 27c11 2 32 21 46 42l25 39 9-42c8-37 12-42 32-37 17 5 23 1 28-20 5-17 12-24 25-22 11 2 29-10 45-29 15-18 33-30 40-27s21-4 31-16c10-11 30-20 45-20 16 0 30-7 34-16 4-10 14-14 25-11 11 2 31-5 47-19 52-42 59-32 37 49-7 27 14 48 40 38 12-5 56-6 97-4 41 3 92 5 113 4 26 0 37 4 37 14 0 19 2 19 45-2s52-13 32 29c-14 28-14 34-1 41 17 10 18 31 2 57-11 17-10 22 2 30 13 8 13 13-3 40-16 26-16 30-3 30 21 0 20 6-5 41-17 24-18 29-5 29 21 0 20 19-3 54-19 28-19 30-3 42 16 11 15 14-6 37-16 17-21 31-17 48 4 18 0 31-18 47-14 13-23 31-21 40 3 11-8 25-31 40-19 12-35 28-35 35 0 13-22 27-65 42-18 6-17 9 13 23 24 12 32 22 30 37-1 11 8 31 20 43 18 18 22 30 17 52-3 16-1 38 5 50s8 29 4 38c-5 9-8 31-9 47 0 17-4 31-10 32-5 1-12 19-15 40-4 25-10 37-19 35s-11 3-6 15c4 10 10 37 12 60l6 43-49-6c-27-4-56-13-65-21-9-7-24-11-33-7-10 4-25-1-36-11-10-9-24-14-30-10s-20-1-30-10c-15-14-23-15-33-6-11 8-20 5-42-15-15-14-33-23-41-20-7 3-27-6-44-20-16-14-34-23-39-19-5 3-19-4-30-16s-24-18-30-15c-6 4-18-2-27-13-16-19-18-17-61 40-25 32-52 59-60 59s-25 9-37 21c-28 27-94 50-123 42-13-3-30 0-38 7-17 14-207 21-227 9zm158-32c4-4 13-2 20 4 10 8 22 6 47-10 26-16 36-18 46-8 9 9 16 9 31-1 11-6 28-12 38-12s31-13 45-30c15-16 33-30 40-30 6 0 27-23 46-51 38-55 51-132 32-181-10-26-11-27-38-13-25 13-27 19-28 73-1 65-34 134-82 171-39 31-39 19 1-33 67-88 76-193 15-184-21 3-25 10-30 63-4 33-14 76-22 95-20 46-96 131-97 109 0-9 7-23 17-30 32-27 73-131 73-185 0-50-1-51-29-50s-30 4-41 61c-13 66-44 127-84 164-32 30-48 20-18-12 35-37 69-111 77-165 8-58 5-59-49-37-26 11-36 22-37 38-2 78-33 148-88 202-38 36-54 25-19-13 35-36 65-98 73-149l7-42-51 27c-37 20-52 34-56 54-8 32-89 126-101 115-4-4 2-17 13-30 11-12 30-39 43-60l23-39-51 26c-41 21-192 76-208 76-2 0-4-7-4-15s7-15 16-15c20 0 193-69 213-84 19-15-20-23-111-25-38 0-68-5-68-11 0-13 145-13 190 0 28 8 43 7 73-6 56-26 32-38-83-42-106-5-129-15-55-26 44-7 79-4 167 15 37 9 52 8 75-5 26-14 26-15 6-16-13 0-23-5-23-10 0-6-13-4-30 5-16 8-34 15-40 15-13 0-13-37 0-45 6-3 8-16 4-29-3-14 1-27 10-35 10-9 14-22 10-37-4-17-1-26 10-30 9-3 16-16 16-28 0-19-5-22-45-21-27 0-49 5-54 13-4 7-28 19-52 26-32 9-45 19-47 34-2 13-13 23-32 27-21 5-27 11-23 25s-4 23-31 34-36 21-36 39c0 15-10 31-24 41-17 11-23 21-19 36 4 14-1 26-15 36-12 8-18 21-15 33s-5 26-23 40c-23 18-26 24-14 32 13 8 12 11-3 20-23 14-22 32 2 24 11-3 22-1 26 5 3 5 24 10 46 10 21 0 39 5 39 10 0 6 15 10 34 10s38 5 41 10c3 6 21 10 40 10s37 5 41 11c4 7 21 9 45 5 21-3 40-2 43 2 6 10 132 9 142-1zm854-17c0-5-16-43-36-85-40-84-48-85-59-3-8 54-20 62-30 18-7-30-2-59 17-97 13-26 2-76-15-70-6 2-18 36-26 75-7 40-17 72-22 72-15 0-10-92 7-137 16-41 16-44-1-63-10-11-22-20-26-20-16 0-41 75-40 119 2 86-24 114-31 34-4-45 10-111 34-160 12-24 4-43-18-43-8 0-12 5-9 10 3 6 2 10-3 10-12 0-21 31-37 120-11 69-16 80-30 80-11 0-14-7-9-25 3-13 7-39 9-57 4-52 14-87 35-129l20-38-24-16c-13-8-30-13-38-10-28 11-52 82-63 185-4 36-12 68-18 72-15 9 12 41 30 34 7-3 23 6 36 20 15 17 28 23 43 20 14-4 28 2 44 19 17 18 27 22 36 14 9-7 19-7 36 2 13 7 27 12 32 11 4-2 18 4 31 12 12 8 31 13 42 10s26 3 37 15c17 18 46 19 46 1zm27-96c10 4 14 0 11-16-2-14-18-31-45-46l-42-23 27 55c15 30 29 48 30 40 2-9 10-13 19-10zm-444-156c5-70 12-103 31-140l26-49-43-18c-50-22-57-19-57 19 0 16-9 44-20 62-13 22-16 36-9 44 5 7 13 45 16 86 6 76 16 100 37 92 9-3 15-36 19-96zm479 66c-3-16 1-29 9-34 11-7 11-13 0-34-8-13-11-34-8-45 3-13-4-28-19-42-16-15-22-29-18-41 4-15-2-22-25-31-17-6-31-16-31-23 0-17-76-74-99-74-11 0-24-6-28-14-5-9-33-17-73-21-57-5-63-5-47 8 26 21 21 37-12 37-17 0-33 5-37 11-3 6-20 9-37 6-27-4-28-3-12 10 20 14 25 15 125 17 71 2 170 43 170 70 0 11-16 7-58-15-44-23-69-30-103-27l-44 3 35 21c19 12 59 25 89 28 54 7 124 36 136 57 13 20-3 20-44-1-22-12-60-24-83-28-38-5-41-4-28 10 22 21 55 37 109 54 45 13 91 48 79 59-3 3-25-6-49-20-61-34-73-32-46 10 13 20 30 34 42 35 11 0 34 9 50 19 44 29 63 27 57-5zM851 924c9-8 21-14 26-12s22-11 36-28c20-23 27-43 27-72 0-65-55-134-83-106-3 4 0 16 8 28 19 27 19 79 0 116-18 36-41 41-30 8 15-50 17-80 5-108-18-44-42-39-39 8 4 70-1 100-20 123-27 34-34 20-16-32 14-37 14-109 0-109-22 0-30 15-27 54 3 27-3 58-13 80-19 40-42 50-30 14 13-46 18-118 7-118-16 0-32 34-32 68 0 32-33 82-46 69-4-4-2-18 5-31s11-31 9-40c-2-13-16-6-63 31l-60 47 30 8c115 28 276 29 306 2zm-293-76l45-41-32 6c-17 4-31 2-31-3 0-14 13-19 72-30 29-6 59-18 68-26 14-15 12-16-15-11-16 4-40 9-52 13-35 10-27-13 8-25 18-6 50-11 73-11 51 0 86-9 86-22 0-11-71-6-102 7-13 5-18 2-18-8 0-21 56-31 122-24 35 5 48 3 46-5-3-7-37-13-87-16-76-4-83-2-88 16-3 13-17 23-33 27-20 4-27 11-23 21 3 9-5 19-24 27-18 7-27 18-25 29 2 9-7 23-20 32-12 9-17 16-10 16 17 0 15 37-3 44-15 5-21 26-9 26 4 0 27-19 52-42zm899-74c12-3 19-12 17-19-3-7 8-21 25-31 19-11 31-27 31-39 0-11 13-29 30-40 19-13 26-23 20-29-16-16-12-34 13-57 15-15 18-23 10-26-18-6-16-29 3-59 16-23 16-26-2-39s-18-14 4-38l23-24-23-6-22-6 26-28c25-26 26-29 10-40-16-10-16-12 0-40 16-27 16-30 0-39-14-9-15-15-4-38 11-25 11-26-7-16-29 15-61 12-61-5 0-18-5-18-30-5-13 7-23 6-32-3-18-17-150-16-172 2-12 10-15 23-10 46 3 19 1 43-7 56-9 17-9 24 0 27 16 5 14 44-4 68-19 25-19 34 1 34 11 0 15 6 11 20-3 11-1 20 4 20s9 23 9 51c0 45 2 50 15 39s15-26 9-80c-6-66 7-140 26-140 4 0 6 36 3 80-6 89 3 101 36 46 15-23 21-50 21-88 0-59 16-118 31-118 6 0 7 24 3 60-4 33-4 60-1 60 2 0 22-27 43-60 22-33 45-60 52-60 21 0 14 20-23 64-19 24-35 48-35 53 0 6-10 23-22 38l-22 28 32-6c18-4 46-10 62-13 18-4 30-2 30 4 0 12-21 21-84 33-46 8-96 41-96 61 0 13 58 9 97-7 43-18 43-18 43-2 0 17-62 39-122 42-45 2-77 21-78 48 0 9 60 8 123-2 33-6 47-4 47 4 0 17-139 39-172 26-21-8-29-6-42 8-9 10-16 21-16 26 0 8 118-1 145-11 10-4 15 0 15 12 0 9-3 15-6 12s-30 1-60 8c-38 11-65 12-88 6-27-8-40-6-66 11l-33 21 34 12c19 7 44 13 57 13 12 1 22 5 22 11 0 5 12 13 27 16 15 4 42 18 61 31 38 25 38 25 69 17zm-474-41c2-5 1-20-2-35l-6-26-24 19c-19 16-21 22-11 34 13 16 36 20 43 8zm121 1c12-5 13-10 5-25-5-10-15-19-22-18-9 0-9 2 1 6 25 10 11 24-18 18-25-5-29-4-24 9 6 16 31 21 58 10zm-474-84c18-18 51-26 90-20 11 1 8-5-7-22-13-13-23-33-23-44 0-29-33-54-55-42-33 19-185 10-185-11 0-4 37-8 83-9 96-1 137-5 137-13 0-3-9-16-19-28-18-20-23-21-58-12-62 18-163 13-163-8 0-3 33-6 73-6 52-1 80-6 97-18 31-22 50-22 51 1 0 11 2 13 6 4 3-7-5-24-17-37-20-22-24-22-56-9-51 21-214 17-214-6 0-4 33-5 73-2 54 3 82 0 112-13 40-17 40-17 18-32-16-10-52-15-122-16-64-1-104-6-112-14-20-20-9-21 58-11 34 6 74 7 89 4l27-7-38-26c-34-23-133-71-193-94l-24-9 26 31c27 31 34 59 16 59-7 0-7 7 1 21 6 12 8 34 5 49-3 18 0 33 9 40 21 18 20 54-1 46-9-4-1 13 20 38 20 24 36 50 36 58 0 7 16 24 35 38 23 16 34 32 32 45-1 14 8 24 31 34 17 8 32 21 32 28 0 34 99 44 130 13zm317 3c4-12-52-53-72-53-5 0-11 15-12 34-1 34-1 34 39 33 23-1 43-7 45-14zm206 1c8-3 13-13 10-23-3-11 5-22 21-31 19-10 24-19 20-35s2-26 21-39c21-14 25-23 20-43-4-17 0-31 10-43 14-15 14-22 4-38s-10-26 4-53c15-32 15-35 0-47-16-11-16-14 0-41 21-36 21-41 2-41s-19-10 0-46c13-26 13-29-1-32-16-4-16-30 2-77 7-19 7-19-13-3-11 10-29 18-40 18s-26 7-34 16c-7 8-21 13-32 10s-26 4-40 20c-13 15-27 22-38 19-12-4-24 5-39 30-12 20-27 34-34 32-6-2-19 9-29 26-11 18-23 27-32 23-11-4-15 2-15 18 0 34-10 56-25 56-8 0-14 17-16 44-3 34 0 47 14 55 10 7 25 27 34 45 15 32 53 56 53 35 0-17 30-9 31 9 0 9 3 12 5 6 3-6-7-33-21-59-29-56-37-175-11-175 10 0 15 20 18 73 3 40 10 82 16 92 10 19 11 18 22-9 8-23 8-38-5-68-15-39-20-113-9-142 13-33 24-14 25 42 0 31 4 66 8 76 7 19 8 19 15 0 21-50 24-76 15-104-8-21-7-40 1-65 17-51 31-43 27 15-1 27 0 46 3 42 4-4 23-31 44-59 21-29 42-53 47-53 14 0 12 5-36 77-62 92-60 100 20 61 24-12 48-18 52-14 9 9-13 24-81 52-43 18-84 59-72 72 2 2 31-8 65-22 43-17 61-21 61-12 0 12-24 25-112 60-28 11-38 21-38 37 0 13 5 19 13 17 61-23 119-39 124-34 9 9-99 56-128 56-20 0-28 6-31 25-6 31 3 31 71 0 56-26 81-25 46 2-32 24-81 43-120 45-29 3-33 5-19 13 59 35 79 53 82 73 3 22 17 27 45 16zm-93-23c0-11-23-31-36-31-6 0-14 10-16 23-4 20-1 23 24 19 15-2 28-7 28-11zm190-36c43-44 45-49 45-104 0-33-3-57-7-54-5 2-8 19-8 37 0 20-8 40-20 51-11 10-20 27-20 39 0 11-12 33-27 48s-22 28-17 28 30-20 54-45zm-430 16c0-12 9-23 23-27 21-7 21-7 2-14-11-4-37-5-57-2-31 4-38 1-38-12 0-12 10-16 38-16 46-1 26-15-35-24-28-4-43-2-43 4 0 20 40 89 57 99 29 17 53 13 53-8zm163-34c-5-37-6-38-37-31-59 12-61 19-15 51 24 17 47 27 50 24 4-3 4-23 2-44zm-90-41c9-7 17-20 17-28 0-15-38-69-40-58-7 37-9 100-3 100 4 0 16-7 26-14zm-156-50l25 7-27-27c-34-34-59-29-42 8 7 14 13 21 15 16 2-6 15-7 29-4zm99-11c-4-15-2-25 4-25s8-4 5-10c-4-6-11-5-19 2-14 13-9 58 6 58 6 0 7-11 4-25zm-54-27c-4-17-2-20 12-15 11 4 15 3 10-4-3-6-16-8-29-5-14 4-28 0-35-9-7-8-18-15-24-15-10 1 58 70 68 70 2 0 2-10-2-22zm75-105c9-47 8-62-3-80-8-12-20-20-28-17-7 3-25-8-38-25-18-20-32-28-45-25-14 4-27-3-42-22-11-14-21-22-21-15 0 17-19 13-48-10-23-18-27-19-30-5-4 20-7 20-37 0-20-13-28-14-39-4-11 8-20 9-35 0-13-6-27-7-37-2-13 7-12 11 6 27 11 10 20 28 20 40 0 11 5 26 12 33 23 23 28 12 13-25-8-20-12-39-9-42 7-7 37 35 41 57 3 27 23 57 45 71 19 12 20 11 13-16-4-15-8-35-10-43s-6-23-10-32c-5-12-2-18 7-18 15 0 55 107 44 117-8 8 13 43 25 43s7-109-6-148c-6-18-4-21 8-16 21 8 39 88 31 139-6 40 7 68 20 46 6-9 53 2 86 20 41 22 55 11 67-48zM435 168c-15-38-61-60-76-37-6 10-16 10-47 1-48-15-75-15-67-2 4 6 10 8 15 5 10-6 113 31 154 56 17 10 31 17 33 15s-3-19-12-38z" fill="#fff"/></svg>