<svg version="1.0" xmlns="http://www.w3.org/2000/svg" width="103" height="148" viewBox="0 0 1030 1480"><g fill="#fff"><path d="M543 1468c-54-67-137-229-182-353-30-82-34-305-7-332 3-3-1-17-8-32-8-16-10-34-5-46 13-34 10-36-28-16-21 10-49 22-62 26-20 6-23 4-19-12 5-18 2-19-33-9-31 8-42 7-56-6-10-8-31-18-46-22-21-5-27-11-23-23 4-11-5-26-26-44-24-21-30-31-21-37 10-6 8-17-7-47-18-35-18-40-5-45 14-5 14-8 1-25-20-26-20-55-2-55 11 0 13-9 9-36-5-28-2-39 11-46 11-6 15-16 11-29-5-14-2-19 13-19 14 0 19-7 19-31 0-18 7-37 16-44 10-7 17-24 17-38v-25l42 16c24 9 54 24 67 34s29 18 35 18c11 0 66 60 66 73 0 5 4 6 9 3s18 13 30 37c18 35 27 37 22 5 0-5 5-7 12-5 7 1 13-12 15-36 2-29 7-37 18-33 9 3 14-2 15-14 3-36 4-40 12-37 5 1 15-11 24-26 8-16 20-26 26-24 7 2 20-7 30-20s25-23 33-23 14-4 14-9 10-13 23-16c12-4 32-16 44-27s26-17 32-14c6 4 24 0 40-9 19-9 32-11 36-5 4 7 13 6 26 0 11-6 25-7 32-3 6 4 20 6 30 5 12-3 22 6 30 27 6 17 15 31 20 31s8 17 6 37c-1 21 2 50 6 66 4 17 3 33-5 42-10 12-9 16 3 21 16 6 15 31-2 77-6 16-6 28 1 35 10 10-16 62-33 62-5 0-6 6-3 13 3 8-2 20-10 27-9 7-14 16-11 20 3 5-5 16-17 24-36 26-30 43 18 55 26 7 48 19 51 29 4 9 22 32 41 49 24 22 33 39 29 52-2 11 2 29 10 40 7 11 13 26 12 33s8 35 20 62 19 51 17 54c-3 2-25 6-48 7-62 4-112 16-120 29-9 13-164 17-196 5-20-8-23-7-18 6 6 18-1 19-41 5-26-10-51-14-100-19-6 0-24-11-40-24-31-26-69-32-76-14-6 15-1 163 7 197 11 50 71 202 87 219 9 10 19 27 23 38s15 28 26 38 20 23 20 30 9 20 20 30c12 11 20 28 18 39-4 24-30 32-45 14zm21-33c-4-8-9-15-13-15-3 0-19-20-34-45-16-25-31-45-34-45-4 0 16 36 55 98 16 25 34 30 26 7zm-128-207c-19-27-21-19-4 18 7 14 14 21 16 15s-4-21-12-33zm177-347c-5-19-3-19 41-3 36 13 48 14 54 5 6-10 17-10 42-3 46 13 49 12 25-8-31-26-80-91-110-147-35-63-69-95-101-95h-25l20 29c12 16 21 33 21 38 0 4 18 38 39 75s34 65 27 62c-12-5-85-120-104-166-9-22-18-28-42-28h-31l19 28c28 40 64 113 58 119-2 3-19-19-35-48-45-78-56-90-75-83-9 3-16 8-16 11 0 2 18 43 41 90 22 46 38 87 36 90-6 5-67-97-86-144-16-40-22-41-38-7-11 23-10 27 9 31 16 5 19 12 15 37-2 17-1 40 4 51 4 11 8 14 8 8 2-22 21-14 55 22 36 38 56 45 56 18 0-14 3-14 23 4 19 18 37 26 69 32 3 0 4-8 1-18zm257-16c28 0 34-3 32-18-3-17 14-18 66-1 8 2 18 2 22-1 8-5-15-74-47-142-8-17-13-35-10-40 4-6 1-10-6-11-83-11-131-13-154-7-25 6-17 11 66 39 52 17 97 37 99 44 3 10-5 10-33-2-53-23-53-21 3 24 46 36 86 80 79 87-2 1-26-18-53-43-42-39-144-103-144-90 0 6 69 108 88 130 16 18 16 18-5 7-12-6-37-33-54-59-18-26-42-57-53-68-26-27-87-64-104-64-16 0 55 136 95 180 29 33 64 53 73 41 3-4 21-7 40-6zM310 647c0-4 3-6 8-4 4 3 16-5 27-16l20-20-20 8c-35 14-135 19-135 6 0-6 15-11 34-11s38-5 41-10c4-6 11-8 16-5 5 4 17 1 26-4 21-12 19-12-67-15-46-2-77-9-105-25-66-37-77-58-14-26 16 9 59 19 95 22 60 6 66 4 63-12-3-13-15-19-44-22-66-7-73-29-7-23 35 3 26-16-18-33S71 360 70 347c0-5 19 5 42 22s46 31 52 31c5 0 17 6 25 14 9 7 26 17 38 20 20 7 21 5 11-28-6-19-31-56-55-83-25-26-53-64-63-83l-19-35-1 42c0 35-3 41-16 36-14-5-16-2-10 20 5 23 3 27-14 27-16 0-20 5-16 18 2 9 7 31 11 47 4 24 15 35 56 54 28 12 48 25 45 28-8 8-88-27-103-46-26-31-25 0 1 39 23 36 24 40 7 31-33-18-35-13-6 25 25 33 26 37 11 46s-13 12 16 28c21 11 32 24 30 35-3 14 3 16 33 14 21-2 39 2 44 9 6 11 13 11 35 0 24-10 29-10 37 5 8 14 13 15 29 4 11-6 20-15 20-20zm576-42c-22-19-47-35-55-36-51-3-85-9-90-16-7-10-37-10-47 0-4 4-13 2-20-4-8-7-22-5-46 5-18 8-27 15-20 15 19 1 14 19-9 26-37 12-13 16 37 5 84-17 104-19 104-11 0 4-18 13-41 20-60 18-41 24 38 12 62-9 156-1 171 14 3 3 8 5 11 5s-12-16-33-35zm-466 7c0-5-7-17-15-28-14-19-14-19-15 2 0 11 3 24 7 27 9 10 23 9 23-1zm160-44c0-14-15-8-45 17l-30 25 37-17c21-10 38-21 38-25zm-214-89c4-52 12-97 18-101s7-10 3-14c-11-12-28 10-32 42-15 118-15 187 1 172 2-3 6-47 10-99zm130 88c8 3 14 1 14-4 0-6 10-14 21-19 20-9 19-11-13-20-25-8-35-8-35 0 0 6-3 22-6 36-4 14-4 20-1 13s12-9 20-6zm-48-35c17-32 17-39 5-51-19-17-8-27 12-11 9 7 15 9 13 4-1-5 6-21 15-36 17-24 17-29 3-56-19-37-34-148-19-139 6 4 13 30 15 58 6 58 32 96 44 63 4-10 13-26 20-34 11-13 11-23-1-55-16-46-19-105-6-105 5 0 8 8 6 18-1 9 3 32 11 50 7 17 11 32 8 32s-2 5 2 12c5 8 11 6 20-7 11-15 14-16 19-3 3 8 5 21 3 28-4 16 43 28 87 23 17-2 37-4 45-4 8-1 21-6 28-12 6-5 12-6 12-2 0 3 12-3 26-14 28-22 54-28 54-12 0 13-90 64-115 65-11 1-25 5-31 8-6 4-37 1-69-7-60-13-75-12-75 6 0 14-42 69-49 64-4-2-11 16-17 40l-10 44 38 6c20 4 41 4 46 1 6-3 15 1 22 9 8 10 18 11 36 5 13-5 29-8 36-6 7 3 32 7 55 10 37 5 41 4 36-13-3-13 2-21 16-26 12-3 21-15 21-26s6-22 14-25 13-11 10-18 6-21 20-31c24-18 24-20 9-38-15-16-15-19-3-27 8-6 11-10 6-10s-1-9 9-20c14-16 16-23 7-32-16-16-15-45 1-51 6-3 1-6-14-6-14-1-29 3-35 8-11 12-133 33-145 25-5-3-19 5-31 16-20 18-23 19-26 5-2-9-1-24 3-33s8-36 9-59c0-24 6-42 11-40 6 1 9 11 7 22-5 38 7 49 27 24 10-13 21-34 25-47 4-12 18-35 31-50l23-28-24-2c-14-1-27 4-30 11-3 8-16 12-33 9-21-3-33 2-45 19-9 13-16 20-16 15s-8-3-17 6c-10 8-30 19-46 26-15 6-26 17-25 24 2 7-3 12-10 10-7-1-17 9-22 23s-14 25-20 25c-5 0-12 11-16 25-3 14-13 25-21 25-10 0-13 10-11 38 2 24-1 36-9 35-18-4-22 22-8 51 12 23 12 26-4 26-15 0-17 7-14 48 4 44 20 112 28 112 2 0 12-17 23-38zm-148-82c0-25 17-26 23-2 4 14 5 14 7-3 5-58 4-153-2-149-4 3-19-14-33-37-15-22-29-38-32-35-4 3-18-4-31-16-14-13-22-17-18-11 4 7 9 34 12 60 6 62 25 145 31 139 7-7 11-37 13-91 0-40 3-46 11-32 6 11 9 56 7 108-1 49 0 89 5 89 4 0 7-9 7-20zm-96-168c-3-93-4-100-22-104-18-5-18-4 0 33 10 21 18 44 18 51s-9-5-19-27c-20-43-55-93-45-64 3 10 1 20-5 24-20 12-11 35 30 80 23 25 42 45 43 45 0 0 1-17 0-38zm613-94c18-5 42-7 53-3 14 5 20 2 20-9 0-9-5-16-11-16-7 0-8-11-4-30 5-25 4-29-9-24-9 3-16 9-16 13s-26 16-57 26c-32 11-69 30-83 43l-25 23 50-6c28-4 65-11 82-17zm16-85c19-6 21-12 9-30-5-9-16-3-37 19-23 25-25 30-10 24 11-5 28-11 38-13zm-29-52c-7-9-34 10-34 24 0 13 3 12 18-2 10-10 17-20 16-22z"/><path d="M603 443c-29-11-9-18 57-20s90 7 54 21c-18 7-93 7-111-1z"/></g></svg>