<svg version="1.0" xmlns="http://www.w3.org/2000/svg" width="51" height="48" viewBox="0 0 510 480"><g fill="#fff"><path d="M155 464C59 430 1 349 0 250c0-64 14-89 67-121 21-12 56-39 78-59C211 9 230 0 293 0c126 0 216 95 217 231 0 171-185 294-355 233zm200-38c102-48 146-133 126-241-14-73-51-120-116-144-90-34-115-28-199 49-31 27-60 50-65 50s-23 12-40 26c-79 66-33 212 84 265 58 27 147 25 210-5z"/><path d="M172 229c-23-9-39-35-28-46 3-4 12 2 20 12 10 14 19 16 42 10 27-8 27-9 7-12-35-7-31-50 7-71 16-9 30-20 30-24 0-14 28-9 44 8 22 21 20 28-15 69-42 47-77 65-107 54zm8-107c0-15 24-32 45-32 19 0 18 2-5 20-27 21-40 25-40 12z"/></g></svg>