<svg version="1.0" xmlns="http://www.w3.org/2000/svg" width="73.333" height="72" viewBox="0 0 55 54"><path d="M11.5 2.2C9.2 4 8.9 4.8 9.3 8.2c.5 3.9.3 4.2-3.9 3.9-3.2-.3-5.4 2.5-5.4 7 0 3.3.4 4.1 2.5 4.9L5 25v13.9c0 11.7.2 14 1.6 14.5 2 .8 39.8.8 41.8 0 1.4-.5 1.6-2.8 1.6-14.5V25l2.5-1c2.2-.8 2.5-1.6 2.5-5.4 0-5.1-.9-6-6.3-6.2-3.6-.1-4-.5-3-3.2.9-2.2-.7-6.2-3.2-7.8-2.2-1.4-2.9-1.5-5.7-.3-1.8.7-4.6 2.6-6.4 4.1L27.3 8l-1.9-2.1C23.5 3.8 16.9 0 15.2 0c-.5 0-2.2 1-3.7 2.2zm9 1.9c3.6 2.2 5.5 4.6 5.5 7.2 0 1.2-1.2 1.4-6.2 1-3.5-.2-6.8-.9-7.5-1.5-1.9-1.5-1.6-6.5.5-7.7 2.5-1.5 3.7-1.3 7.7 1zM42.1 3c2.3 1.3 2.6 6.2.4 8-2 1.6-13.5 2-13.5.4 0-2.6 1.4-4.6 4.9-6.9 3.9-2.8 5.3-3 8.2-1.5zM22 18.5V23H2v-9h20v4.5zM31 33v19h-7V14h7v19zm22-14.5V23H33v-9h20v4.5zm-31 8.2c0 1.9-.5 2.3-3.1 2.3-1.7 0-2.8.4-2.4 1 .3.5 1.7 1 3.1 1C22 31 22 31 22 41.5v10.6l-7.7-.3-7.8-.3-.3-12.4c-.1-6.9-.1-13 .2-13.6.2-.7 3.2-1.1 8-1.1 7.2.1 7.6.2 7.6 2.3zm26.3-1.8c.4 0 .7 6.2.7 13.6V52H33V31h2.5c1.4 0 2.5-.5 2.5-1 0-.6-1.1-1-2.5-1-1.9 0-2.5-.5-2.5-2.3 0-2.2.3-2.3 7.3-2.1 3.9.1 7.5.2 8 .3z" fill="#f50049"/></svg>