<svg version="1.0" xmlns="http://www.w3.org/2000/svg" width="140" height="140" viewBox="0 0 105 105"><g fill="#f50049"><path d="M44.5 4.6C36.6 6.5 31.1 8.8 26 12.2c-9.2 6.1-14.1 12.5-20.4 26.7C4.2 42 4.2 64 5.6 67.1 11.9 81.3 16.8 87.7 26 93.8c8.7 5.9 15.5 7.7 28.1 7.7 5.9 0 11.7-.5 13-1.1 18.5-8.2 25.1-14.8 33.3-33.3 1.8-4.1 1.3-22.8-.8-29.4-3.7-11.8-13.3-22.9-24.4-28.2-3.1-1.6-6.5-3.2-7.5-3.7-2.1-1-20.2-2-23.2-1.2zm20.6 3.8c15.8 4.8 25.4 14.4 32.8 32.9 1.4 3.6 1.4 18 0 22.6C91.1 85.7 74.1 99 52.9 99c-8.5 0-11.5-.8-20.8-5.2C20.9 88.3 12.3 78 8.4 65.1c-1.7-5.5-1.8-19.9-.3-23.8 1.7-4.1 6.2-13.7 7.1-14.8 6.9-9 14.5-14.4 26.3-18.3 4.4-1.5 18.3-1.4 23.6.2z"/><path d="M51.2 13.2c.3.7 1.8 1.4 3.4 1.6 9.9.8 18.3 5 26.1 12.9 5.8 6 8.3 7.6 8.3 5.2 0-1.9-11.2-12.8-15.8-15.4-8.3-4.7-23-7.5-22-4.3zM48.5 24c-3.7 5.9-3.2 14.8 1.1 17.3.8.4 1.4 1.7 1.4 2.8 0 1.8-.2 1.9-3 .4-1.6-.8-5-1.8-7.5-2.2l-4.5-.6v4.2c0 7.4 4.3 13 10.7 14 2.9.5 3.8 1.2 4.4 3.3.9 3.5.1 4.2-2.7 2.4-1.2-.8-4.5-1.8-7.3-2.2l-5.1-.7v4.2C36 74.3 41.3 81 47.1 81c3.6 0 4.4 1.3 4.4 7.5 0 3.8.4 5 1.5 5s1.6-1.4 1.8-5.5c.3-5.8 1.2-7 5.1-7 1.4 0 3.9-1.6 6.3-3.9 3.6-3.7 3.9-4.3 3.6-8.8l-.3-4.8-5 .3c-2.7.2-5.7 1-6.6 1.8-2.3 2.1-2.9 1.7-2.9-1.5 0-3 1.4-4.1 5.2-4.1 1.1 0 3.8-1.8 6-3.9 3.6-3.7 3.9-4.3 3.6-8.8l-.3-4.8-4.3.2c-2.4.1-5.5.9-6.8 1.7-3 2.1-3.4 2-3.4-.4 0-1.1.4-2 1-2 1.7 0 4-5.8 4-10 0-5-4.1-12-7-12-1.2 0-2.9 1.5-4.5 4zm7.4 2.9c1.2 1.6 2.1 4 2 5.3-.1 3-3.2 8.3-4.9 8.3-1.6 0-4.8-5.2-4.9-8-.1-2.3 3.4-8.5 4.8-8.5.5 0 1.9 1.3 3 2.9zM45.3 46.1c3.5 1.8 5.7 5.1 5.7 8.6 0 3.8-1.8 4.3-6.7 1.8-3.1-1.6-7-8.6-5.8-10.6.8-1.2 4.2-1.1 6.8.2zm22.2 0c.8 1.1-1.3 6.8-3 8.4-2 1.9-5.5 3.5-7.5 3.5-4.3 0-1.4-10.1 3.4-12 3-1.2 6.4-1.2 7.1.1zM46.7 68.2c3.2 2.2 3.8 3.4 4.5 8.3.4 2.6-3.1 3.1-7.1 1-3.2-1.6-6.6-7.8-5.7-10.2.8-2 4.6-1.6 8.3.9zm20.9-.9c.9 2.4-2.5 8.6-5.6 10.2-4.9 2.5-7 2-7-1.8.1-4.9 4.8-9.6 9.8-9.7 1.2 0 2.5.6 2.8 1.3zm21.6-29.4c-1 .6-.9 1.7.3 5 .8 2.4 1.5 6.1 1.5 8.2 0 2.9.4 3.9 1.6 3.9 1.4 0 1.6-.9 1.1-5.8-.6-7-2.8-12.4-4.5-11.3z"/></g></svg>