<svg version="1.0" xmlns="http://www.w3.org/2000/svg" width="196" height="106.667" viewBox="0 0 147 80"><g fill="#f50049"><path d="M22 3c-.8.4-2.9 1.4-4.6 2C10.6 7.5 4 17.1 4 24.4c0 6.7 5.9 15 13.3 18.7 2.3 1.2 4.3 2.3 4.5 2.4.2.2-.4 1.7-1.3 3.4-2.4 4.7-5.3 14.8-6.1 21.4-.5 4.8-.4 6 1 7 1.3 1 16 1.2 62.9 1.2 51.8-.1 61.5-.3 63.5-1.5 1.4-1 2-2.1 1.6-3-.4-.8-1-3.7-1.5-6.4-.9-5.5-2.5-10.7-4.4-15.1-.8-1.7-1.8-4.2-2.3-5.5-1.2-3.2-8.5-12.5-12.8-16.2-9.3-8.2-19.8-12.9-32.3-14.4-3.1-.3-6.4-1.1-7.3-1.6-2.1-1-2.3-4-.6-6.8 1-1.5.9-2.2-.6-3.9-1.5-1.6-2.1-1.8-3.7-.8-2 1.3-2.6 5.2-.9 6.2.6.3 1 1.7 1 3.1 0 2.1-.5 2.4-3.7 2.5-3.4 0-13.2 1.7-20.5 3.5-2.4.5-2.9.2-4.7-3.4-1.1-2.2-3.7-5.4-5.7-7C37.4 3.2 26.3.5 22 3zm14.8 4.6c3 1.5 6.4 4.2 8.2 6.7 2.9 3.8 3.1 4.7 2.8 10.3-.5 7.7-3.5 12.1-11 15.8-6.3 3.2-11.7 3.3-17.4.5-15.8-7.6-15.8-26.2.1-33.5 6.5-3.1 10.9-3 17.3.2zm44-.8c.2.7-.3 1.2-1.2 1.2-.9 0-1.6-.7-1.6-1.6 0-1.7 2.2-1.4 2.8.4zm19.2 14c20.3 6.6 34.8 23.4 39.3 45.8 2 9.7 2.6 9.3-13.7 9.6-7.9.2-15.1.2-16 0-1.4-.3-1.6-2.3-1.6-16.2V44.1l-3.6-.7c-2-.4-7.1-.4-11.3-.1-10.2.8-11.5-.1-6.7-4.7 2.3-2.1 3.6-4.2 3.4-5.3-.4-2.3-5-2.9-6.8-.9-1.1 1.4-.9 1.6 1.4 1.6 3.1 0 3.5 2.4.7 4-2.8 1.5-4.1 1.2-4.2-.8-.1-4.5-14.3-12.2-17.1-9.4-2.2 2.2.1 7.9 4.2 11 5.5 4 3.8 5-8.2 4.7-5.3-.1-10.2.1-10.9.6-1 .6-1.3 4.2-1.1 15.7.3 10.9 0 15.2-.9 15.7-1.5 1-29.2.6-30.2-.4-1.1-1.1 2.6-17.5 5.4-23.8 2.3-5.3 3.7-6.2 9.4-6.3 4.1-.1 10.4-3.1 13.7-6.6 3.1-3.3 5.8-9.2 5.8-12.7 0-3.2 1.5-4.3 8.1-6.2 8.2-2.3 32.2-1.5 40.9 1.3zM75 33.2c3.5 3.5 4 6.8.9 6.8-4.1 0-10.9-5-10.9-8.1 0-3.7 5.8-3 10 1.3zM96.3 46h8.7v8.5c0 8.4 0 8.6-2.7 9.6-4.2 1.6-8.6.3-14.1-4.1-6.4-5.1-9-5.1-15.6-.1-8.1 6.2-13.7 6.3-19.8.3-2.4-2.2-2.8-3.4-2.8-8.4v-5.7l12.3-.4c6.7-.2 15.1-.2 18.7-.1 3.6.2 10.4.4 15.3.4zM85.7 61.2c5.7 4.9 7.8 5.8 13.8 5.8h5.6l-.3 3.7-.3 3.8h-54l-.3-4.4c-.5-6.9.2-7.7 4.4-5.2 6.2 3.7 11.9 2.6 20.2-3.6 2.4-1.8 5-3.3 5.8-3.3.8 0 3.1 1.5 5.1 3.2z"/><path d="M17.8 17.1C15 18.7 15.7 20 19 19.3c2.5-.5 3-.2 3 1.5 0 1.1-1.3 3.4-3 5.2-1.6 1.8-3 3.6-3 4.1 0 .5 2 .9 4.5.9s4.5-.5 4.5-1c0-.6-.8-1-1.8-1-3.1 0-3.3-1.1-.7-4.2 3-3.5 3.1-4.9.7-7.1-2.1-1.9-3-2-5.4-.6zm13.3 3.4c-3.3 4.9-3.3 7 .1 7 1.5.1 3.4.9 4.2 2 1.3 1.8 1.4 1.8 2.4-.2 1.2-2.1.5-6.3-.9-6.3-.6 0-1.2.7-1.5 1.5-.4.8-1.2 1.5-2 1.5-1.6 0-1.9-3.6-.4-4.5.5-.3 1.5-1.5 2-2.6 1.9-3.4-1.3-2.2-3.9 1.6zm69.9 8c0 .8.7 1.5 1.5 1.5s1.5-.7 1.5-1.5-.7-1.5-1.5-1.5-1.5.7-1.5 1.5zm8 4.5c0 .5 1.3 1.6 2.8 2.4 6.3 3.2 13.8 12.9 16.8 21.5 1.1 3 2.5 5.6 3.2 5.9 3.3 1.1-3.8-15.1-9.5-21.7-5.1-6-13.3-11-13.3-8.1z"/></g></svg>