<svg version="1.0" xmlns="http://www.w3.org/2000/svg" width="546" height="148" viewBox="0 0 5460 1480"><path d="M3418 1467c-7-7-31-26-52-42-41-31-78-65-243-221l-96-92-26 17c-79 50-191 124-226 148-59 42-187 114-196 111-12-5-90-82-144-143-27-32-66-74-85-95s-42-48-50-60-29-38-45-57l-31-35-51 29c-28 15-71 40-96 54-25 15-78 41-119 59-40 18-102 46-137 61-34 16-67 27-71 24-12-7-70-94-70-104 0-4-9-16-20-26s-20-22-20-27c0-4-15-30-33-56-37-53-118-188-129-214-6-15-17-13-115 18-108 34-146 45-299 84-92 23-104 24-104 9 0-6-11-25-25-43s-25-36-25-40c0-8-50-86-67-104-7-7-13-18-13-24 0-5-8-22-18-36-10-15-34-65-52-112-43-109-45-110-78-99-177 57-244 71-410 86l-62 5-16-38c-8-22-37-84-63-139-27-55-52-111-56-125s-18-45-30-70C21 122-7 14 2 4c6-5 83 35 130 67 14 11 29 19 32 19 4 0 19 8 34 19 46 31 127 76 135 73 4-1 7 2 7 8 0 5 5 10 10 10 6 0 35 16 65 35s55 33 55 30c0-2 30 13 67 34 93 52 296 151 311 151 7 0 12 5 12 10 0 6 5 10 11 10 11 0 32 9 144 60 96 45 127 58 185 80 30 12 59 25 65 30 8 6 68 29 95 35 3 1 14 5 25 10 83 34 198 76 235 86 25 7 50 14 55 15 6 2 42 13 80 24 39 12 77 22 85 24 8 1 26 7 40 13s41 14 60 18 40 10 45 13c6 4 51 17 100 30 110 29 102 26 150 40 34 9 322 65 480 93 28 5 82 11 120 14 39 3 79 7 90 10 11 2 63 7 115 10 52 4 98 8 101 11 3 2 123 6 265 9 307 7 650-17 989-69 319-49 749-153 978-237 45-16 82-29 83-29s3 27 3 59v60l-34-15c-19-8-37-14-39-14-6 0-86 116-86 125 0 4-20 33-45 65s-45 61-45 65-20 32-44 63c-24 32-49 68-56 81-10 19-17 22-41 17-44-8-139-53-354-165-83-44-101-50-110-38-21 28-221 251-273 304-58 58-69 60-124 21-16-11-28-17-28-13 0 3-10-3-22-15-12-11-28-20-35-20s-13-5-13-11c0-5-4-8-9-4-5 3-13 1-16-5-4-6-25-23-48-37s-74-50-112-79c-39-29-76-54-82-56s-58 42-115 98c-56 55-137 127-178 160-41 32-76 62-78 67-6 12-39 8-54-6zm106-107c41-35 122-110 206-189l45-43-35 7c-39 9-385 9-475 1-33-3-85-8-115-12l-55-7 19 22c11 11 22 21 26 21 5 0 35 27 68 59 34 33 67 63 75 68 8 4 47 38 87 75 83 76 64 77 154-2zm767-2c10-18 9-20-6-15-9 4-28 7-43 7-25 0-25 1-6 15 27 20 41 19 55-7zm17-60c29-6 55-15 58-20 6-10 4-10-70 2-34 5-83 12-111 16-39 5-46 8-30 15 21 9 67 5 153-13zm-1632-3c18-14 18-14-6-14-14 0-52-6-85-15-82-21-90-20-65 6 14 15 38 25 73 29 29 3 55 7 58 8 3 0 14-6 25-14zm1604-61c41-8 88-14 103-14 16 0 35-6 43-14 16-17 4-16-141 11-44 8-113 17-154 20-48 4-69 8-60 14 16 10 99 3 209-17zm829-64c4-3 18-23 32-45s56-86 94-142c38-57 66-106 63-109s-95 18-205 46c-109 28-244 63-301 77s-101 27-99 29c8 9 223 116 237 119 25 5 83 33 114 54l30 20 15-22c8-12 17-24 20-27zm-2599 32c0-5-16-14-36-20-25-7-34-7-32 0 2 6 15 13 28 15s26 6 29 8c7 7 11 6 11-3zm1660-22c47-5 112-16 145-24 57-14 58-14 21-15-22-1-65 3-95 9-31 5-104 15-163 22-85 9-104 14-91 23 11 8 29 9 57 3 23-4 79-12 126-18zm-1310 5c25-14 25-14-15-15-22 0-55-4-74-10-18-5-57-12-85-14-28-3-62-8-76-11-24-5-62-12-123-20-15-2-32-7-37-10s-11-1-14 4 11 12 32 17c20 4 42 8 49 10 6 1 28 7 47 14 35 11 226 48 256 49 8 0 26-6 40-14zm-1052-34c9-6 93-47 187-92l169-83-39-9c-64-14-159-37-170-40-5-2-23-7-40-11-26-7-336-109-374-124-10-4-9 3 5 26 10 18 22 32 26 32s8 5 8 11 10 24 23 39c12 15 28 36 34 46 7 10 23 35 36 54 12 19 33 55 46 80 25 49 49 80 63 80 4 0 16-4 26-9zm2437-36c61-7 130-18 155-24 25-5 66-13 93-16 26-3 47-11 47-17 0-11-82-4-155 13-50 12-168 26-353 41-90 7-138 14-130 20 15 10 182 2 343-17zm248 6c9-9 8-11-4-6-10 4-39 10-65 15l-49 9 53-3c29-2 59-9 65-15zm-1559 3c28-11 17-21-21-21-21-1-87-8-148-17-60-9-128-18-150-21s-51-8-65-11-34-7-45-9-33-6-50-10c-30-7-49-10-113-20-19-3-38-8-44-11-5-3-4 3 3 14 15 24 112 46 379 86 19 3 67 9 105 12 39 3 72 8 74 10 7 6 58 5 75-2zM1035 860c3-4-13-12-35-18-40-10-43-5-16 24 11 11 43 8 51-6zm60-38c-14-12-131-62-157-67-39-8 2 23 68 50 58 24 108 33 89 17zm113-21c9-5-2-13-35-25-60-22-113-44-135-56-10-6-22-10-27-10s-22-5-38-12c-15-6-31-11-35-10-5 1-8-2-8-7s-9-11-21-14c-19-5-19-4-7 15 8 11 45 32 83 46s95 38 125 53c59 30 77 34 98 20zm75-45c-18-6-35-14-39-18-4-5-14-8-23-8-9-1-34-9-56-20s-43-19-47-20c-4 0-43-17-86-38s-87-41-98-44c-10-3-37-14-59-23-33-14-37-15-26-1 7 8 34 25 59 36 26 12 61 27 77 35 60 27 102 43 195 75 52 18 99 37 104 41 5 5 14 5 20 2 5-4-4-11-21-17zm87-20c0-2-33-17-72-32-40-15-107-43-148-62-120-54-138-62-143-62-3 0-48-21-101-46s-102-44-109-41c-6 3 0 10 16 16 15 6 65 28 110 50 45 21 105 48 132 60 28 12 59 26 70 31 71 31 119 50 127 50 6 0 24 6 41 14 52 23 77 30 77 22zM375 475c61-14 148-31 195-36 47-6 92-13 100-15 8-3-64-44-160-91-164-80-335-178-406-230-42-31-48-29-28 10 10 17 27 59 40 92 12 33 42 109 68 169 25 60 46 116 46 123 0 9 7 12 18 9 9-3 67-17 127-31z" fill="#fff"/></svg>