<svg version="1.0" xmlns="http://www.w3.org/2000/svg" width="549" height="148" viewBox="0 0 5490 1480"><path d="M2005 1458c-16-12-44-37-64-55s-39-33-43-33-18-10-30-22c-13-13-65-63-115-111l-91-89-29 19c-15 10-57 40-93 67-36 26-76 52-90 58-13 5-27 13-30 17-12 19-174 111-195 111-11 0-52-39-170-164-16-17-55-61-85-96-96-114-93-113-170-66-19 11-38 21-42 21s-17 8-28 18c-11 9-24 17-28 17s-55 24-113 53c-109 54-117 57-160 64-20 4-31-2-47-24-12-15-26-33-31-40-6-6-27-37-47-70-20-32-51-74-68-94-36-42-91-131-88-141 1-5-2-8-7-8s-12-8-16-19c-5-17-10-18-45-7-21 6-42 15-46 19-17 17-34 6-34-24 0-16 4-28 9-25s14-1 20-8c10-11 8-16-8-21-14-4-21-15-21-31 0-23 1-24 28-11 15 8 65 24 112 37 47 12 120 35 162 51 127 47 367 106 548 135 47 7 108 18 135 23 28 6 90 15 138 21 49 5 92 12 96 14 31 19 539 58 745 58 172 0 383-9 446-17 19-3 64-7 100-10 140-12 167-15 215-21 52-7 524-98 560-108 11-3 63-17 115-31s100-27 105-29c6-1 30-8 55-15 25-6 54-16 65-21 16-8 128-41 180-54 78-19 173-53 216-76 9-5 33-12 53-15 20-4 36-11 36-16s3-8 8-7c12 3 77-21 167-62 11-5 45-19 75-31 30-11 75-31 100-44s63-31 85-41c22-9 101-46 175-82s137-66 140-67c17-6 46-19 50-24 3-4 46-27 95-52 50-26 131-70 180-99 50-29 119-69 155-89 36-21 84-49 108-64l42-27v37c0 38-20 104-44 153-8 14-26 54-41 90-16 36-50 111-77 168-46 99-49 103-76 98-15-3-56-8-92-11-36-4-128-22-205-40-77-19-148-35-158-37-14-2-26 15-53 82-20 46-44 96-55 111-10 15-19 34-19 42s-7 21-16 28-20 22-25 34c-5 11-20 38-34 60s-33 56-43 76l-17 36-190-48c-104-26-217-58-250-72l-61-24-29 49c-17 27-61 98-100 159-38 60-81 127-95 150s-34 52-46 65l-20 25-75-31c-41-17-90-37-109-45-19-7-60-27-90-44-30-16-88-47-128-68l-73-38-30 34c-16 19-29 37-29 40 0 4-21 29-47 57-27 28-70 77-98 108-78 89-138 146-153 146s-168-85-182-101c-10-11-151-99-159-99-5 0-11-3-13-7-4-11-75-63-85-63-5 0-45 35-89 78-43 42-120 113-169 157-50 44-92 82-95 85-13 14-61 40-73 40-8 0-27-10-42-22zm95-68c23-22 63-57 88-77 25-21 71-61 101-90 31-28 70-63 86-77l30-26-40 5c-121 17-272 24-445 21l-194-3 31 26c17 14 73 65 124 112 148 136 163 149 170 149 4 0 26-18 49-40zm-832-35c-2-1-20-5-41-9l-39-7 18 24c17 23 20 23 42 9 12-8 21-16 20-17zm77-44c6-10-34-17-143-25-83-6-70 6 21 20 95 15 115 16 122 5zm1634-36l24-23-69 14c-110 22-115 24-108 35 12 20 126 1 153-26zm-1565-14c7-11-22-18-109-26-50-5-131-19-227-39-10-2-18 0-18 4 0 14 61 29 160 40 52 5 109 14 125 19 40 12 63 13 69 2zm-946-65c20-12 48-27 62-31 51-16 263-126 256-132-3-4-70-23-148-44-197-52-354-95-410-112l-46-14 44 66c24 36 69 107 100 156 52 81 92 135 101 135 2 0 20-11 41-24zm1016-13c-40-3-129-14-314-39-58-8-121-16-140-19l-35-4 40 14c22 7 55 14 74 14 18 1 50 5 70 10 35 9 227 38 286 44 17 1 36-2 44-8 11-8 5-11-25-12zm1382-14c43-11 88-22 99-24 51-10 111-29 120-37 6-6 5-7-5-4-15 6-32 9-115 20-22 3-51 9-65 12-14 4-36 8-50 10-157 19-226 34-209 45 19 13 129 2 225-22zm899-65c19-30 35-57 35-59 0-3 16-28 35-55s35-52 35-56c0-3 15-24 33-47s41-54 49-68l17-26-77 24c-42 14-86 28-97 33-11 4-36 13-55 20s-44 16-55 21c-11 4-47 15-80 24s-67 18-75 21c-8 2-49 11-90 20s-79 20-84 25c-5 4 13 18 40 30s56 25 64 30c62 35 256 126 263 122 4-2 23-29 42-59zm-2175 36c0-10-34-17-135-24-100-8-365-42-484-63-50-9-30 12 25 26 92 23 275 45 577 70 9 0 17-3 17-9zm1090-16c84-6 154-16 285-39 170-30 209-41 226-61 11-14 8-15-27-9-44 8-218 43-249 51-11 2-36 6-55 8s-73 9-119 16c-85 12-138 17-180 19-20 1-22 3-11 17 10 11 23 14 54 8 23-4 57-8 76-10zm1845-272l19-23-28 11c-45 17-51 23-30 30 10 4 19 7 19 6 0 0 9-11 20-24zm39-79c8-20-19-12-122 33-29 13-58 24-65 24-9 0-8 3 1 9 16 10 179-48 186-66zm-206 27c9-5 40-19 67-30 28-12 64-27 80-34 17-8 44-19 62-27 17-7 34-21 36-30 4-16 2-16-29 2-19 10-37 19-42 19-20 1-219 83-232 96-12 12-11 14 13 14 15 0 35-4 45-10zm-2-80c60-22 118-44 129-50 11-5 43-18 70-30 78-33 94-42 99-57 3-8 2-12-2-10s-23 11-42 20c-19 8-57 25-85 38-27 12-52 23-55 24-3 0-25 11-50 22-25 12-58 25-73 28-15 4-30 11-33 16s-13 9-23 9c-15 0-64 29-50 30 3 0 55-18 115-40zm-61-35c33-13 78-32 100-41 22-10 42-18 45-19 6-1 94-41 140-63 19-9 37-20 38-24 2-5 11-8 20-8 10 0 31-12 47-26 17-13 21-20 10-15-11 6-54 26-95 44-41 19-101 46-132 61-31 14-60 26-64 26-6 0-99 42-184 83-47 23-3 12 75-18zm1006-270c16-33 29-66 29-72 0-7 13-43 29-80 15-38 37-92 49-120l20-53-28 15c-15 8-34 20-42 27s-27 20-43 29c-85 46-100 55-112 66s-179 93-190 93c-2 0-18 9-34 21-16 11-29 17-29 12 0-4-4-3-8 3s-31 21-59 34c-56 25-67 40-30 40 12 0 51 6 87 14 223 49 305 68 309 72 3 3 9-5 14-18s22-50 38-83z" fill="#fff"/></svg>