<svg version="1.0" xmlns="http://www.w3.org/2000/svg" width="111" height="110" viewBox="0 0 1110 1100"><path d="M797 1094c-2-2-33-7-68-10s-80-7-99-9-62-6-94-9c-150-14-285-92-318-182l-11-32-36 20c-62 35-184 7-167-37 4-12 15-14 44-9 45 7 59-5 67-59 3-20 7-53 10-73 6-43 26-83 54-108 23-21 28-40 9-34-7 3-21-3-31-11-39-33-97-94-97-102 0-28 164-41 237-20 30 9 31 8 21-9-7-10-16-16-20-14-5 3-11-2-14-10-3-9-12-16-20-16s-22-4-32-8c-9-5-30-15-47-23-42-21-38-42 10-50 43-7 85 4 128 33 31 22 33 18 11-25-9-18-20-39-24-47-11-25-10-133 2-147 13-16 58-17 58-2 0 5 4 8 9 5 4-3 27 12 49 33l42 38 10-31C501 84 591 12 630 25c13 4 31 0 45-9 24-16 25-16 25 11 0 16-7 37-15 47-20 26-19 42 0 26 11-9 39-11 101-7 69 5 86 3 91-8 8-21 21-18 28 6 7 22-39 129-56 129-18 0-9 19 13 26 70 22 159 182 184 333 3 14 10 42 16 61 43 135 55 285 27 353-16 40-23 46-81 80-42 24-57 27-127 26-44-1-82-3-84-5zm154-45c30-7 57-21 75-40 28-30 29-33 28-133-2-115-11-147-36-123-8 8-40 23-70 32-49 16-55 20-45 36 11 17 33 18 100 3 15-3 27-2 27 3 0 14-79 55-95 49-11-4-12 0-4 20 11 30 2 51-14 35-18-18-25-13-32 19-10 45-35 39-35-8 0-32-5-41-25-50-22-10-25-9-25 7 0 10-6 24-14 30-12 10-15 6-18-25-2-31-8-39-30-45-25-6-27-5-26 19 2 29-10 103-17 110-9 9-34-8-31-20 3-7 7-34 10-61 5-39 2-51-15-68l-22-22-21 44c-32 62-48 62-31 0 12-47 12-51-7-57-21-6-28-3-32 18-5 32-53 101-84 120-18 11-35 18-37 16-3-3 11-23 31-47 20-23 42-61 49-85 12-41 12-44-5-49-11-3-27 4-39 17-39 42-128 96-157 96-19 0-17 13 4 36 20 23 92 69 92 59 0-3 6 0 14 8s43 17 78 21 78 9 96 11 37 7 42 10 15-3 22-15c17-26 32-25 51 4 11 17 22 22 39 19 13-3 39-1 56 4 48 12 102 13 153 2zM360 834c19-12 47-36 62-53 23-28 25-33 11-46-18-18-13-18-80 1-31 9-66 13-81 9-26-6-26-7-8-21 11-8 33-14 49-14 42 0 71-18 57-35-10-12-22-53-23-82-1-17-54 22-69 50-6 12-15 25-19 28-9 5-18 51-20 94-3 52 2 66 26 75 14 5 25 14 25 19 0 13 25 4 70-25zm-164-98c8-37 40-104 62-129 21-24 3-44-26-28-36 19-65 80-77 167-3 21-8 46-11 54s6 4 20-9 28-38 32-55zm603 57c-51-65-134-155-152-164-33-18-38 2-10 41 16 22 32 40 36 40 5 0 20 11 35 25 24 23 91 72 101 74 2 1-3-7-10-16zm-101-3c-2-8-143-76-163-79-12-2-61-37-77-55-19-21-23-43-9-64 11-18 66-26 89-13 28 15 33 3 17-36-21-50-19-70 9-88 25-17 76-12 76 8 0 6 3 7 6 4 9-9-16-38-27-31-5 3-9 0-9-6 0-15-41-29-64-20-11 4-20 18-22 36-3 31-27 54-56 54-11 0-18 7-18 21 0 13-11 25-35 35-41 17-45 40-15 89 32 52 90 86 225 133 70 24 78 25 73 12zm252-41c29-6 50-16 50-24 0-7 7-18 16-26 9-7 13-21 9-33-3-12-16-61-29-111-26-99-43-113-81-65-45 57-61 73-87 86-28 14-29 33-3 67 12 17 15 17 66-7 30-13 56-23 58-21 10 11-33 55-64 66-19 7-34 16-32 19 1 3 9 17 16 33 16 31 14 30 81 16zm-355-75c-9-14-14-33-10-42 4-12 3-14-5-6s-23 7-56-4c-25-8-47-12-51-9-10 11 18 36 56 53 20 9 43 20 51 24 27 16 33 10 15-16zm91-91c-51-79-92-115-106-94-5 9-1 27 10 49 11 19 17 38 15 42-2 3 6 7 18 7 29 3 69 24 85 46 31 41 18 11-22-50zm22-57c-13-20-26-36-30-36s5 18 20 39c34 48 42 46 10-3zm95 23c23-13 27-16 78-59 24-20 38-41 42-63 6-39-18-94-44-102-10-4-19-12-19-20 0-7-20-20-45-28-39-14-45-14-45-1 0 8-6 17-14 20s-18 20-21 37c-4 18-13 42-21 55-8 12-12 22-8 22s2 6-4 13c-7 8-6 18 3 31 14 18 16 18 59-8 24-14 49-26 55-26 20 0-1 29-39 54l-39 26 17 30c20 34 17 33 45 19zm-463-19c0-6-16-10-35-10-40 0-44-9-15-35 25-23 18-33-22-34-18 0-57-2-87-3-37-2-56 1-58 10-3 6 2 12 11 12s16 3 16 8c0 11 59 42 81 42 10 0 19 4 19 8s20 9 45 10 45-3 45-8zm135-70c17-7 16-9-11-9-21-1-40-12-64-36-19-19-39-35-44-35-6 0-3 5 6 10 9 6 26 26 38 45 22 35 38 41 75 25zm9-134c-19-79-30-101-74-145-39-39-50-45-67-38-17 5 10 137 35 172 13 19 14 19 8-7-8-35 3-80 18-75 6 2 17 21 24 43 8 21 23 61 35 87 27 61 39 38 21-37zm228-48c-5-21-19-23-58-5-45 19-81 46-99 74-16 24-16 25 7 18 12-4 31-16 40-27 22-25 40-14 32 19-5 19-2 30 12 40 18 13 21 10 45-43 14-32 24-66 21-76zM542 159c20-12 27 10 22 70l-4 56 20-25c11-14 20-35 20-48 0-12 11-54 24-92l25-70-22 12c-12 6-23 11-24 10-15-10-62 27-82 65-11 21-16 82-11 133 1 14 6-4 11-39 4-35 14-68 21-72zm212 4c65-8 58 11-11 35l-58 20 62-3c52-1 65-6 82-26 11-13 20-27 21-31 0-5 1-11 3-15 1-3-9-8-23-9-112-12-161 1-184 50s-20 51 23 15c27-21 54-33 85-36z" fill="#fff"/></svg>