<svg version="1.0" xmlns="http://www.w3.org/2000/svg" width="168" height="119" viewBox="0 0 1680 1190"><g fill="#fff"><path d="M605 1134c-17-55-17-143 0-186 6-14 2-15-27-9-18 4-55 18-82 29-27 12-50 22-52 22-9 0-3-19 9-32 7-7 27-32 45-55s42-45 53-48c10-4 28-24 38-46 19-38 19-39-1-28-22 12-51 18-88 20-47 3-231-14-235-21-2-4 34-26 81-50 47-23 83-44 81-46-1-2-19-5-37-8-65-9-124-26-162-47-10-5-24-9-32-9-7 0-19-7-26-15s-21-15-30-15c-10 0-20-4-22-8-2-5-29-21-60-36-32-14-58-30-58-35 0-16 13-19 36-9 17 8 27 8 39-2 13-11 19-10 35 5 11 10 20 15 20 12s36 9 80 28 80 32 80 28c0-3 7 0 15 7 9 7 18 10 22 7 3-4 13-2 22 2 9 5 38 12 64 14l47 6-26-22c-14-12-43-36-63-53s-46-36-59-43c-29-15-96-20-139-11-18 5-33 5-33 1 0-9 20-38 20-29 0 4 26-5 57-19 66-29 84-33 135-34l37-1-16-37c-9-20-18-48-20-63-4-20-14-30-39-38-18-6-38-9-44-5-5 3-10-1-10-9 0-9 3-16 8-17 4 0 14-2 22-4 71-18 89-20 117-13 18 5 54 32 85 63 50 51 53 53 60 32 13-47 7-84-21-129-22-35-37-47-58-50-38-4-37-32 1-36 37-5 84 15 91 39 4 10 11 19 16 19s9 6 9 13c0 6 14 27 31 44l30 33 47-62C785 63 899 5 1040 7c41 0 91 5 110 10 49 14 277 129 309 156 9 8 32 22 51 31s50 30 69 46c18 17 37 30 41 30 5 0 20 23 34 52 34 68 34 125 1 164-14 16-25 35-25 42 0 6-3 12-7 12-5 0-24 24-43 53-44 66-179 238-200 254-8 6-31 25-50 42-32 30-84 58-186 101-40 17-141 21-194 8-38-10-150-70-150-81 0-7-5-4-11 6-5 9-34 33-64 52-68 43-89 81-83 152 6 72-14 70-37-3zm89-163c61-36 80-66 59-91-12-14-18-11-58 26-48 46-59 65-68 109-6 26-5 27 4 9 6-11 34-35 63-53zm576-76c36-24 83-65 105-90 22-26 50-57 62-70s19-26 16-29c-4-3-1-6 5-6s27-24 47-52c20-29 58-84 85-123 32-45 50-81 50-99 0-33-36-116-51-116-5 0-17-8-27-17-19-18-35-28-134-84-32-17-58-36-58-41s-4-7-9-4-20-3-33-14c-14-11-28-16-32-13-3 3-6 2-6-4 0-8-77-47-135-68-80-28-214-22-284 14-53 28-109 75-142 121-46 63-49 79-27 124 11 22 20 54 21 72 1 28 5 34 31 40 33 7 42 15 72 59 25 38 30 89 11 118-23 35-65 77-77 77-16 0-12 27 5 34 25 9 34 47 20 82-17 42-4 65 24 40 11-10 25-15 30-11 18 11 12 23-15 32l-26 9 44 30c53 37 120 65 173 71 22 3 41 7 43 8 10 9 156-53 212-90zm-621 1c15-8 34-23 42-33 13-17 13-17-6-2-11 9-33 24-50 32-16 9-26 16-22 17 4 0 20-6 36-14zm40-83c24-38 20-83-8-83-19 0-46 47-57 98-1 8-10 22-20 33-17 18-16 18 23 2 22-10 50-32 62-50zm-95-71c64-35 41-38-59-8-44 13-97 23-117 21-21-1-38 1-38 5s37 8 83 8c70 0 89-3 131-26zm-92-29c65-20 76-32 22-26-34 4-94 28-94 38 0 8 11 6 72-12zm229-46c59-40 94-111 56-115-7 0-27-4-46-7-19-4-31-3-27 3 3 5-6 15-20 23-32 17-55 59-47 87 4 18 15 25 44 31 3 0 21-9 40-22zm-253-24c-10-2-26-2-35 0-10 3-2 5 17 5s27-2 18-5zm122-1c0-4-17-6-37-4-65 6-70 10-15 11 28 0 52-3 52-7zm-14-53c7-13-16-39-38-43-18-2-83-50-113-82-24-25-76-35-130-25l-40 7 46 7c25 4 52 15 60 25 76 85 193 146 215 111zm94-49c17-10 14-15-17-24-22-7-39 7-28 24 8 12 25 13 45 0zm84-50c-14-14-38-22-75-25-44-4-50-2-34 7 23 13 94 36 115 37 11 1 9-4-6-19zm-262-36c-23-19-42-40-42-45s-9-19-20-31c-26-28-26-14 0 27 22 36 90 98 98 90 3-3-13-21-36-41zm98 26c-33-23-50-30-50-22 0 5 10 14 23 20 28 14 47 15 27 2zm-49-88c-23-39-138-147-160-150-23-4-23-2 10 30 19 19 43 50 53 69s30 46 44 61c20 22 29 25 44 17 14-7 16-14 9-27zm134 9c-4-31-41-111-51-111-12 0 2 109 15 124 22 26 40 19 36-13z"/><path d="M990 925c-10-12-10-19-1-28s14-9 20 2c6 9 10 10 12 2 3-8 10-8 23 2 11 8 16 19 12 25-10 17-51 15-66-3zm180-40c0-18 37-38 56-31 23 9 16 23-17 35-40 14-39 14-39-4zm-325-89c-20-15-15-43 10-52 34-13 96 31 79 57-8 14-68 11-89-5zm262-33c-9-9-9-43 1-44 69-10 98 5 72 36-13 15-61 21-73 8zm197-35c-4-6 1-17 12-25 15-11 19-11 27 3 14 25-24 46-39 22zm-351-85c-7-2-13-13-13-23 0-24 18-36 58-38 25-2 32 2 32 16 0 35-42 60-77 45zm218-12c-19-12-4-31 25-31 27 0 33 24 8 34-19 7-16 8-33-3zm189-60c0-40 61-56 68-17 5 22-13 36-45 36-16 0-23-6-23-19zm-506-53c1-13 7-23 16-23 8 0 16 10 18 23 3 16-2 22-16 22s-19-7-18-22zm648-11c2-12 10-22 18-22 22 0 19 38-3 41-14 2-17-3-15-19zm-315-24c-13-13-6-28 18-39 19-9 28-9 42 1 15 11 15 15 4 29-14 16-52 22-64 9zm-235-31c-9-7-10-15-3-35 8-21 17-27 39-27 52 0 70 39 27 58-30 14-45 15-63 4zm411-29c-8-21 17-34 40-21 14 7 16 13 8 21-17 17-42 17-48 0zm-613-20c0-29 13-41 53-48 44-9 50 9 14 43-29 27-67 29-67 5zm760 1c-11-12-10-18 3-31 8-9 23-13 31-10 21 8 21 43 0 51s-20 8-34-10zm-393-60c-16-16-6-34 18-32 17 2 25 8 23 18-3 16-30 25-41 14zm291-22c-22-4-23-16-4-31 14-11 46-5 46 9 0 13-24 27-42 22zm-548-21c0-14 6-19 23-18 43 2 45 37 1 37-17 0-24-5-24-19zm403 2c-20-8-15-41 7-48 29-9 60 3 60 25 0 25-34 37-67 23zm-554-5c-8-27-5-38 12-38 12 0 19 7 19 20 0 11-7 20-15 20s-15-1-16-2zm271-28c-21-13-1-48 31-55 41-9 59 8 35 34-20 22-49 32-66 21zm-181-27c-1-5-1-12 0-17s-5-3-14 4c-20 16-29 8-20-19 12-40 74-37 75 4 0 12-39 39-41 28zm345-96c-14-38 25-64 54-35 17 17 15 28-6 28-10 0-23 5-30 12-9 9-13 7-18-5zm-232-43c2-11 11-20 22-22 13-3 17 1 14 14-2 11-11 20-22 22-13 3-17-1-14-14z"/></g></svg>