<svg version="1.0" xmlns="http://www.w3.org/2000/svg" width="63" height="60" viewBox="0 0 630 600"><path d="M148 563c-32-20-64-51-72-68-9-16-27-43-41-59s-25-34-26-40C-2 203-1 191 20 170c11-11 20-26 20-34 0-21 80-86 113-93 15-3 34-14 41-24C206 2 220 0 316 1c104 1 111 2 149 30 22 17 39 33 38 37s4 6 11 4c8-1 27 13 42 31 79 92 74 81 74 172 0 47-3 85-7 85-5 0-8 19-8 43-1 42-36 107-59 107-6 0-17 9-24 20s-19 20-27 20c-9 0-29 10-46 22-27 20-45 23-142 26l-112 3-57-38zm158 5c10-16 11-128 2-128-5 0-8 6-8 14s-3 16-7 18c-18 7-61 75-55 85 15 22 57 29 68 11zm93-17c16-11 2-62-29-101l-20-25v56c0 66 16 90 49 70zm-181-45c20-19 35-37 32-40s-28 5-55 18c-32 14-45 25-37 30 7 4 10 12 7 17-14 21 18 6 53-25zm-91-3c-4-3-10-3-14 0-3 4 0 7 7 7s10-3 7-7zm388-3c14-22-9-61-46-80-33-18-69-26-69-17 0 2 11 27 25 55 22 45 29 52 54 52 17 0 32-4 36-10zm49-46c3-8 2-12-4-9s-10 10-10 16c0 14 7 11 14-7zm-367-15c46-29 41-55-9-51-61 6-93 17-96 37-8 38 52 47 105 14zm63 6c0-3-2-5-5-5s-5 2-5 5 2 5 5 5 5-2 5-5zm317-47c-3-7-5-2-5 12s2 19 5 13c2-7 2-19 0-25zm-37-12c0-21-7-26-51-35-29-6-54-10-56-8-7 8 64 53 105 66 1 1 2-10 2-23zm-480 5c0-6-4-13-10-16-5-3-10 1-10 9 0 9 5 16 10 16 6 0 10-4 10-9zm317-18c7-14 7-25 2-29-5-3-9 2-9 11 0 19-45 38-71 30-11-4-19-15-19-26 0-18 5-20 33-15 27 5 28 4 10-4-27-11-29-23-7-40 13-11 16-10 21 9 4 16 9 19 18 11 7-6 17-9 21-8 12 4 13-13 3-39-11-30-17-29-11 2 2 14 2 25-1 25-21 0-37-16-37-36 0-28-1-28-35-12-14 6-25 18-24 27 0 10 2 12 6 4 2-7 11-13 20-13 24 0 10 33-24 56-28 19-31 24-18 34 8 7 15 19 15 27 0 11 12 13 48 11 39-2 51-7 59-25zm-57-8c0-3-2-5-5-5s-5 2-5 5 2 5 5 5 5-2 5-5zm-138-21c18-11 6-21-44-35-59-16-88-14-88 6 0 26 42 47 84 40 22-3 43-8 48-11zm418-19c0-3-2-5-5-5s-5 2-5 5 2 5 5 5 5-2 5-5zm-360-10c0-3-2-5-5-5s-5 2-5 5 2 5 5 5 5-2 5-5zm305-5c4-6-10-10-37-9-40 1-41 2-13 9 43 11 43 11 50 0zm-325-44c0-8-15-27-34-44s-32-32-30-35c3-3-4-8-16-12-30-9-52 12-48 48 2 24 10 33 38 43 48 17 90 17 90 0zM50 229c0-24-4-38-10-34-5 3-10 22-10 41s5 34 10 34c6 0 10-18 10-41zm468 31c25 0 32-4 32-19 0-33-17-33-67 0-33 21-40 29-23 25 14-3 40-6 58-6zm87-22c-3-12-9-26-15-32-8-8-10-6-6 7 3 9 8 24 11 32 7 23 14 18 10-7zm-147-28c27-16 33-26 30-48-2-18-10-28-23-30-16-2-26 8-43 43-12 25-22 48-22 50 0 11 27 4 58-15zm-174 4c22-9 20-42-7-89-26-47-48-54-76-26-29 29-26 57 8 92 30 29 46 34 75 23zm94-31c23-33 34-74 24-88-15-21-54-37-65-26-25 25-15 141 12 141 5 0 18-12 29-27zm154-55c-8-8-9-4-5 13 4 13 8 18 11 10 2-7-1-18-6-23zm-385-28c15-21 15-22-8-10-30 16-59 41-59 51 0 13 51-18 67-41zm313-24c0-3-4-8-10-11-5-3-10-1-10 4 0 6 5 11 10 11 6 0 10-2 10-4zM309 26c-10-5-35-5-56 0-34 7-35 8-11 12 14 2 32 9 38 17 10 11 14 11 29-3 17-16 17-17 0-26zm111 19c0-3-2-5-5-5s-5 2-5 5 2 5 5 5 5-2 5-5z" fill="#fff"/></svg>