<svg version="1.0" xmlns="http://www.w3.org/2000/svg" width="149" height="73" viewBox="0 0 1490 730"><path d="M442 714c-12-8-22-23-22-34 0-20 54-71 100-95 17-9 30-17 30-18s-35-2-77-2c-53 0-78-4-81-13-2-8-16 3-34 27-28 38-58 54-58 31 0-6 9-28 20-50s20-41 20-44-39 26-87 65C131 679 90 702 43 698c-38-3-38-3-41-52-4-59 26-108 99-161 78-58 135-79 216-79 40-1 73-5 73-9s6-7 14-5c19 4 158-122 205-186 21-28 62-86 92-128 33-48 61-78 72-78 14 0 17 5 11 23-8 28-82 131-126 177-61 63-181 231-184 257-3 23-2 24 15 9 10-9 23-16 29-16 23 0 12 25-25 58-21 18-29 29-18 23 11-5 31-21 44-35 14-14 28-26 33-26 15 0 8 23-14 47-28 30-10 29 36-2 45-30 50-31 43-5-7 27 4 25 37-5 35-33 33-52-9-69-40-17-43-26-17-49 42-38 252-107 252-83 0 7-28 21-62 31-35 11-87 30-116 43l-54 24 31 19c22 13 31 26 31 44 0 22 3 25 25 19 26-6 33 4 15 22-5 5 48-5 118-22 181-46 235-51 259-27 18 18 25 19 104 7 90-14 217-18 243-8s18 41-16 62c-78 47-414 148-636 192-132 26-346 28-380 4zm297-19c194-29 582-138 691-196l35-18h-75c-41-1-120 6-174 14-55 8-110 15-123 15-27 0-32-26-5-34 9-2-5-2-33 1-65 7-169 29-274 59-99 28-91 28-91 9 0-12-8-12-50 5-82 32-190 107-190 132 0 30 130 36 289 13zm-595-62c84-59 206-164 217-185 11-20 9-21-52-16-75 7-160 42-213 88-56 49-92 131-69 154 14 14 65-4 117-41zm267-165c6-12 6-18 0-18s-18 15-27 33c-16 30-16 31 0 18 9-8 22-23 27-33zm55-70l29-33-32 29c-31 28-38 36-30 36 2 0 16-15 33-32z" fill="#2d2829"/></svg>