<svg xmlns="http://www.w3.org/2000/svg" xmlns:xlink="http://www.w3.org/1999/xlink"><symbol id="icon-cake" viewBox="0 0 147.000000 80.000000" preserveAspectRatio="xMidYMid meet">
<metadata>
</metadata>
<g transform="translate(0.000000,80.000000) scale(0.100000,-0.100000)" fill="#f50049" stroke="none">
<path d="M220 770 c-8 -4 -29 -14 -46 -20 -68 -25 -134 -121 -134 -194 0 -67 59 -150 133 -187 23 -12 43 -23 45 -24 2 -2 -4 -17 -13 -34 -24 -47 -53 -148 -61 -214 -5 -48 -4 -60 10 -70 13 -10 160 -12 629 -12 518 1 615 3 635 15 14 10 20 21 16 30 -4 8 -10 37 -15 64 -9 55 -25 107 -44 151 -8 17 -18 42 -23 55 -12 32 -85 125 -128 162 -93 82 -198 129 -323 144 -31 3 -64 11 -73 16 -21 10 -23 40 -6 68 10 15 9 22 -6 39 -15 16 -21 18 -37 8 -20 -13 -26 -52 -9 -62 6 -3 10 -17 10 -31 0 -21 -5 -24 -37 -25 -34 0 -132 -17 -205 -35 -24 -5 -29 -2 -47 34 -11 22 -37 54 -57 70 -60 50 -171 77 -214 52z m148 -46 c30 -15 64 -42 82 -67 29 -38 31 -47 28 -103 -5 -77 -35 -121 -110 -158 -63 -32 -117 -33 -174 -5 -158 76 -158 262 1 335 65 31 109 30 173 -2z m440 8 c2 -7 -3 -12 -12 -12 -9 0 -16 7 -16 16 0 17 22 14 28 -4z m192 -140 c203 -66 348 -234 393 -458 20 -97 26 -93 -137 -96 -79 -2 -151 -2 -160 0 -14 3 -16 23 -16 162 l0 159 -36 7 c-20 4 -71 4 -113 1 -102 -8 -115 1 -67 47 23 21 36 42 34 53 -4 23 -50 29 -68 9 -11 -14 -9 -16 14 -16 31 0 35 -24 7 -40 -28 -15 -41 -12 -42 8 -1 45 -143 122 -171 94 -22 -22 1 -79 42 -110 55 -40 38 -50 -82 -47 -53 1 -102 -1 -109 -6 -10 -6 -13 -42 -11 -157 3 -109 0 -152 -9 -157 -15 -10 -292 -6 -302 4 -11 11 26 175 54 238 23 53 37 62 94 63 41 1 104 31 137 66 31 33 58 92 58 127 0 32 15 43 81 62 82 23 322 15 409 -13z m-250 -124 c35 -35 40 -68 9 -68 -41 0 -109 50 -109 81 0 37 58 30 100 -13z m213 -128 l87 0 0 -85 c0 -84 0 -86 -27 -96 -42 -16 -86 -3 -141 41 -64 51 -90 51 -156 1 -81 -62 -137 -63 -198 -3 -24 22 -28 34 -28 84 l0 57 123 4 c67 2 151 2 187 1 36 -2 104 -4 153 -4z m-106 -152 c57 -49 78 -58 138 -58 l56 0 -3 -37 -3 -38 -270 0 -270 0 -3 44 c-5 69 2 77 44 52 62 -37 119 -26 202 36 24 18 50 33 58 33 8 0 31 -15 51 -32z"/>
<path d="M178 629 c-28 -16 -21 -29 12 -22 25 5 30 2 30 -15 0 -11 -13 -34 -30 -52 -16 -18 -30 -36 -30 -41 0 -5 20 -9 45 -9 25 0 45 5 45 10 0 6 -8 10 -18 10 -31 0 -33 11 -7 42 30 35 31 49 7 71 -21 19 -30 20 -54 6z"/>
<path d="M311 595 c-33 -49 -33 -70 1 -70 15 -1 34 -9 42 -20 13 -18 14 -18 24 2 12 21 5 63 -9 63 -6 0 -12 -7 -15 -15 -4 -8 -12 -15 -20 -15 -16 0 -19 36 -4 45 5 3 15 15 20 26 19 34 -13 22 -39 -16z"/>
<path d="M1010 515 c0 -8 7 -15 15 -15 8 0 15 7 15 15 0 8 -7 15 -15 15 -8 0 -15 -7 -15 -15z"/>
<path d="M1090 470 c0 -5 13 -16 28 -24 63 -32 138 -129 168 -215 11 -30 25 -56 32 -59 33 -11 -38 151 -95 217 -51 60 -133 110 -133 81z"/>
</g>
</symbol><symbol id="icon-delivery" viewBox="0 0 55.000000 54.000000" preserveAspectRatio="xMidYMid meet">
<metadata>
Created by potrace 1.12, written by Peter Selinger 2001-2015
</metadata>
<g transform="translate(0.000000,54.000000) scale(0.100000,-0.100000)" fill="#f50049" stroke="none">
<path d="M115 518 c-23 -18 -26 -26 -22 -60 5 -39 3 -42 -39 -39 -32 3 -54 -25 -54 -70 0 -33 4 -41 25 -49 l25 -10 0 -139 c0 -117 2 -140 16 -145 20 -8 398 -8 418 0 14 5 16 28 16 145 l0 139 25 10 c22 8 25 16 25 54 0 51 -9 60 -63 62 -36 1 -40 5 -30 32 9 22 -7 62 -32 78 -22 14 -29 15 -57 3 -18 -7 -46 -26 -64 -41 l-31 -28 -19 21 c-19 21 -85 59 -102 59 -5 0 -22 -10 -37 -22z m90 -19 c36 -22 55 -46 55 -72 0 -12 -12 -14 -62 -10 -35 2 -68 9 -75 15 -19 15 -16 65 5 77 25 15 37 13 77 -10z m216 11 c23 -13 26 -62 4 -80 -20 -16 -135 -20 -135 -4 0 26 14 46 49 69 39 28 53 30 82 15z m-201 -155 l0 -45 -100 0 -100 0 0 45 0 45 100 0 100 0 0 -45z m90 -145 l0 -190 -35 0 -35 0 0 190 0 190 35 0 35 0 0 -190z m220 145 l0 -45 -100 0 -100 0 0 45 0 45 100 0 100 0 0 -45z m-310 -82 c0 -19 -5 -23 -31 -23 -17 0 -28 -4 -24 -10 3 -5 17 -10 31 -10 24 0 24 0 24 -105 l0 -106 -77 3 -78 3 -3 124 c-1 69 -1 130 2 136 2 7 32 11 80 11 72 -1 76 -2 76 -23z m263 18 c4 0 7 -62 7 -136 l0 -135 -80 0 -80 0 0 105 0 105 25 0 c14 0 25 5 25 10 0 6 -11 10 -25 10 -19 0 -25 5 -25 23 0 22 3 23 73 21 39 -1 75 -2 80 -3z"/>
</g>
</symbol><symbol id="icon-ingredients" viewBox="0 0 105.000000 105.000000" preserveAspectRatio="xMidYMid meet">
<metadata>
Created by potrace 1.12, written by Peter Selinger 2001-2015
</metadata>
<g transform="translate(0.000000,105.000000) scale(0.100000,-0.100000)" fill="#f50049" stroke="none">
<path d="M445 1004 c-79 -19 -134 -42 -185 -76 -92 -61 -141 -125 -204 -267 -14 -31 -14 -251 0 -282 63 -142 112 -206 204 -267 87 -59 155 -77 281 -77 59 0 117 5 130 11 185 82 251 148 333 333 18 41 13 228 -8 294 -37 118 -133 229 -244 282 -31 16 -65 32 -75 37 -21 10 -202 20 -232 12z m206 -38 c158 -48 254 -144 328 -329 14 -36 14 -180 0 -226 -68 -218 -238 -351 -450 -351 -85 0 -115 8 -208 52 -112 55 -198 158 -237 287 -17 55 -18 199 -3 238 17 41 62 137 71 148 69 90 145 144 263 183 44 15 183 14 236 -2z"/>
<path d="M512 918 c3 -7 18 -14 34 -16 99 -8 183 -50 261 -129 58 -60 83 -76 83 -52 0 19 -112 128 -158 154 -83 47 -230 75 -220 43z"/>
<path d="M485 810 c-37 -59 -32 -148 11 -173 8 -4 14 -17 14 -28 0 -18 -2 -19 -30 -4 -16 8 -50 18 -75 22 l-45 6 0 -42 c0 -74 43 -130 107 -140 29 -5 38 -12 44 -33 9 -35 1 -42 -27 -24 -12 8 -45 18 -73 22 l-51 7 0 -42 c0 -74 53 -141 111 -141 36 0 44 -13 44 -75 0 -38 4 -50 15 -50 11 0 16 14 18 55 3 58 12 70 51 70 14 0 39 16 63 39 36 37 39 43 36 88 l-3 48 -50 -3 c-27 -2 -57 -10 -66 -18 -23 -21 -29 -17 -29 15 0 30 14 41 52 41 11 0 38 18 60 39 36 37 39 43 36 88 l-3 48 -43 -2 c-24 -1 -55 -9 -68 -17 -30 -21 -34 -20 -34 4 0 11 4 20 10 20 17 0 40 58 40 100 0 50 -41 120 -70 120 -12 0 -29 -15 -45 -40z m74 -29 c12 -16 21 -40 20 -53 -1 -30 -32 -83 -49 -83 -16 0 -48 52 -49 80 -1 23 34 85 48 85 5 0 19 -13 30 -29z m-106 -192 c35 -18 57 -51 57 -86 0 -38 -18 -43 -67 -18 -31 16 -70 86 -58 106 8 12 42 11 68 -2z m222 0 c8 -11 -13 -68 -30 -84 -20 -19 -55 -35 -75 -35 -43 0 -14 101 34 120 30 12 64 12 71 -1z m-208 -221 c32 -22 38 -34 45 -83 4 -26 -31 -31 -71 -10 -32 16 -66 78 -57 102 8 20 46 16 83 -9z m209 9 c9 -24 -25 -86 -56 -102 -49 -25 -70 -20 -70 18 1 49 48 96 98 97 12 0 25 -6 28 -13z"/>
<path d="M892 671 c-10 -6 -9 -17 3 -50 8 -24 15 -61 15 -82 0 -29 4 -39 16 -39 14 0 16 9 11 58 -6 70 -28 124 -45 113z"/>
</g>
</symbol><symbol id="icon-instagram" viewBox="0 0 169.063 169.063">
<g>
	<path fill="#f50049" d="M122.406,0H46.654C20.929,0,0,20.93,0,46.655v75.752c0,25.726,20.929,46.655,46.654,46.655h75.752
		c25.727,0,46.656-20.93,46.656-46.655V46.655C169.063,20.93,148.133,0,122.406,0z M154.063,122.407
		c0,17.455-14.201,31.655-31.656,31.655H46.654C29.2,154.063,15,139.862,15,122.407V46.655C15,29.201,29.2,15,46.654,15h75.752
		c17.455,0,31.656,14.201,31.656,31.655V122.407z"/>
	<path fill="#f50049" d="M84.531,40.97c-24.021,0-43.563,19.542-43.563,43.563c0,24.02,19.542,43.561,43.563,43.561s43.563-19.541,43.563-43.561
		C128.094,60.512,108.552,40.97,84.531,40.97z M84.531,113.093c-15.749,0-28.563-12.812-28.563-28.561
		c0-15.75,12.813-28.563,28.563-28.563s28.563,12.813,28.563,28.563C113.094,100.281,100.28,113.093,84.531,113.093z"/>
	<path fill="#f50049" d="M129.921,28.251c-2.89,0-5.729,1.17-7.77,3.22c-2.051,2.04-3.23,4.88-3.23,7.78c0,2.891,1.18,5.73,3.23,7.78
		c2.04,2.04,4.88,3.22,7.77,3.22c2.9,0,5.73-1.18,7.78-3.22c2.05-2.05,3.22-4.89,3.22-7.78c0-2.9-1.17-5.74-3.22-7.78
		C135.661,29.421,132.821,28.251,129.921,28.251z"/>
</g>
<g>
</g>
<g>
</g>
<g>
</g>
<g>
</g>
<g>
</g>
<g>
</g>
<g>
</g>
<g>
</g>
<g>
</g>
<g>
</g>
<g>
</g>
<g>
</g>
<g>
</g>
<g>
</g>
<g>
</g>
</symbol><symbol id="icon-twitter" viewBox="0 -47 512.00004 512"><path fill="#f50049" d="m512 55.964844c-32.207031 1.484375-31.503906 1.363281-35.144531 1.667968l19.074219-54.472656s-59.539063 21.902344-74.632813 25.820313c-39.640625-35.628907-98.5625-37.203125-140.6875-11.3125-34.496094 21.207031-53.011719 57.625-46.835937 100.191406-67.136719-9.316406-123.703126-41.140625-168.363282-94.789063l-14.125-16.964843-10.554687 19.382812c-13.339844 24.492188-17.769531 52.496094-12.476563 78.851563 2.171875 10.8125 5.863282 21.125 10.976563 30.78125l-12.117188-4.695313-1.4375 20.246094c-1.457031 20.566406 5.390625 44.574219 18.320313 64.214844 3.640625 5.53125 8.328125 11.605469 14.269531 17.597656l-6.261719-.960937 7.640625 23.199218c10.042969 30.480469 30.902344 54.0625 57.972657 67.171875-27.035157 11.472657-48.875 18.792969-84.773438 30.601563l-32.84375 10.796875 30.335938 16.585937c11.566406 6.324219 52.4375 27.445313 92.820312 33.78125 89.765625 14.078125 190.832031 2.613282 258.871094-58.664062 57.308594-51.613282 76.113281-125.03125 72.207031-201.433594-.589844-11.566406 2.578125-22.605469 8.921875-31.078125 12.707031-16.964844 48.765625-66.40625 48.84375-66.519531zm-72.832031 48.550781c-10.535157 14.066406-15.8125 32.03125-14.867188 50.578125 3.941407 77.066406-17.027343 136.832031-62.328125 177.628906-52.917968 47.660156-138.273437 66.367188-234.171875 51.324219-17.367187-2.722656-35.316406-8.820313-50.171875-14.910156 30.097656-10.355469 53.339844-19.585938 90.875-37.351563l52.398438-24.800781-57.851563-3.703125c-27.710937-1.773438-50.785156-15.203125-64.96875-37.007812 7.53125-.4375 14.792969-1.65625 22.023438-3.671876l55.175781-15.367187-55.636719-13.625c-27.035156-6.621094-42.445312-22.796875-50.613281-35.203125-5.363281-8.152344-8.867188-16.503906-10.96875-24.203125 5.578125 1.496094 12.082031 2.5625 22.570312 3.601563l51.496094 5.09375-40.800781-31.828126c-29.398437-22.929687-41.179687-57.378906-32.542969-90.496093 91.75 95.164062 199.476563 88.011719 210.320313 90.527343-2.386719-23.183593-2.449219-23.238281-3.074219-25.445312-13.886719-49.089844 16.546875-74.015625 30.273438-82.453125 28.671874-17.621094 74.183593-20.277344 105.707031 8.753906 6.808593 6.265625 16.015625 8.730469 24.632812 6.589844 7.734375-1.921875 14.082031-3.957031 20.296875-6.171875l-12.9375 36.945312 16.515625.011719c-3.117187 4.179688-6.855469 9.183594-11.351562 15.183594zm0 0"/></symbol><symbol id="icon-vk" viewBox="1 -104 511.99902 511"><path fill="#f50049" d="m456.738281 202.101562-.277343-.257812c-4.371094-4.035156-17.761719-17.066406-22.277344-22.761719-5.300782-7.105469-4.078125-11.761719-.105469-18.738281 5.019531-8.816406 15.078125-22.339844 25.722656-36.660156 34.09375-45.851563 56.105469-77.59375 51.574219-100.140625l-2.441406-12.042969-125.910156.054688c-.441407 1.1875-7.011719 30.050781-34.738282 79.199218-20.105468 35.636719-33.292968 46.832032-37.9375 48.808594l-.71875-.21875c-1.511718-1.867188-4.152344-6.90625-5.238281-19.894531-1.132813-13.605469-.128906-30.078125.84375-46.007813 1.136719-18.679687 2.117187-34.8125-.230469-46.355468l-3.824218-18.804688c-4.621094-.738281-21.539063-7.265625-68.675782-7.761719-40.808594-.417969-52.796875 5.476563-58.683594 10.671875l-19.472656 17.183594 24.613282 8.28125c9.367187 3.152344 12.476562 6.789062 15.027343 24.816406 1.664063 11.75 2.535157 31.496094.738281 49.125-2.582031 25.277344-8.773437 29.980469-9.09375 30.230469-1.066406-.363281-10.109374-4.320313-25.808593-37.511719-10.890625-23.019531-20.4375-50.25-27.414063-70.132812-7.984375-22.769532-6.546875-17.921875-10.597656-28.679688l-121.8125-.003906 7.882812 20.390625c32.863282 85.089844 63.015626 151.539063 103.367188 199.265625 44.582031 52.730469 99.988281 80.339844 174.621094 80.339844h15v-15c0-14.023438 1.160156-24.121094 3.648437-31.777344 1.519531-4.664062 3.539063-8.519531 5.660157-12.5625 3.148437-5.953125 6.226562-8.503906 7.90625-8.882812 1.523437-.347657 4.203124.769531 7.171874 2.984374 8.523438 6.355469 15.289063 14.707032 22.453126 23.550782 10.335937 12.761718 21.023437 25.953125 37.980468 34.589844 9.265625 4.71875 26.25 7.101562 35.597656 7.101562 2.472657 0 90.601563-.003906 90.710938-.003906l-.644531-15.617188c-.960938-23.351562-19.339844-52.550781-54.617188-86.777344zm-34.867187 72.394532h-.242188c-6.445312.105468-18.746094-2.007813-22.324218-3.828125-11.273438-5.742188-19.152344-15.472657-28.28125-26.738281-8.011719-9.894532-16.296876-20.125-27.832032-28.722657-9.328125-6.957031-17.800781-8.992187-24.527344-8.992187-2.6875 0-5.101562.324218-7.171874.792968-7.808594 1.757813-18.976563 7.375-27.855469 24.167969-2.503907 4.777344-5.34375 10.1875-7.644531 17.265625-2.410157 7.40625-3.910157 15.636719-4.625 25.648438-56.242188-3.195313-100.128907-25.445313-137.207032-69.300782-34.472656-40.777343-61.59375-97.8125-90.316406-170.300781 2.078125 0 54.152344.007813 57.226562.007813.941407 2.644531 1.957032 5.542968 3.035157 8.613281 7.519531 21.449219 17.820312 50.820313 29.957031 75.867187 17.378906 35.867188 33.25 51.863282 51.457031 51.863282 9.089844 0 17.242188-3.851563 23.574219-11.144532 9.027344-10.394531 14.269531-27.550781 16.027344-52.453124 1.386718-19.636719.097656-39.195313-1.425782-49.972657-1.257812-8.867187-3.050781-18.175781-7.425781-26.515625 18.644531-.839844 43.609375.488282 59.425781 2.757813 1.4375 7.828125.5 23.214843-.40625 38.101562-2.191406 35.960938-4.453124 73.070313 14.582032 90.433594 3.347656 3.054687 6.898437 4.691406 7 4.757813l9.6875 2.972656c3.738281-1.152344 25.390625 9.832031 66.390625-61.71875 13.136719-22.925782 25.367187-49.34375 31.953125-66.597656 15.273437-.03125 67.308594.027343 73.421875.035156-8.660157 19.058594-29.183594 46.242187-42.597657 64.285156-11.695312 15.726562-21.792968 29.308594-27.71875 39.714844-11.007812 19.332031-9.15625 36.5625 2.308594 51.761718l.179688.234376c6.398437 8.144531 22.199218 23.222656 25.476562 26.261718 23.742188 23.050782 35.183594 39.609375 40.628906 50.738282h-54.730468zm0 0"/></symbol></svg>