<svg version="1" xmlns="http://www.w3.org/2000/svg" width="362" height="401" viewBox="0 0 3620 4010"><path d="M870 3994c-14-7-45-14-70-14-46 0-174-20-265-40-27-6-71-15-98-19-26-4-53-13-59-19-7-7-24-12-39-12s-31-4-34-10c-3-5-13-10-22-10-15 0-75-24-103-41-8-5-24-13-35-18s-45-30-75-55-58-46-62-46c-5 0-8-126-8-280s4-280 8-280c5 0 14-10 19-22 24-50 92-124 173-189 73-59 179-129 195-129 7 0 15-7 19-15 3-8 15-15 26-15s38-11 60-25 44-25 49-25 22-6 38-14c15-8 46-22 68-31s48-20 57-25c10-6 28-10 42-10 13 0 29-7 36-15s27-15 45-15c17 0 35-3 39-7 11-11 142-43 291-70 53-10 145-82 145-113 0-9 7-25 15-36 24-32 19-87-13-120-15-16-50-63-77-104s-55-79-62-83-13-19-13-32c0-14-4-25-8-25-10 0-52-118-52-146 0-17-47-64-64-64-11 0-86-74-86-85 0-7-6-18-14-24-8-7-17-27-20-46-4-19-11-35-16-35-6 0-10-16-10-35 0-22-6-38-15-41-12-5-15-30-15-136 0-128 0-129 27-153 23-19 26-26 15-36-6-7-12-24-12-38 0-13-8-33-17-44-16-17-18-43-17-243 0-195 2-225 17-242 9-10 17-32 17-48 0-17 7-39 15-50 8-10 15-27 15-36s14-43 30-75c16-31 30-63 30-71 0-7 7-15 15-18 8-4 15-17 15-30s5-24 10-24c11 0 58-50 96-101 23-32 136-119 154-119 6 0 23-9 38-20 14-11 45-25 68-31 24-6 49-17 55-25 17-21 504-21 512 0 3 8 19 17 36 21 41 9 91 34 91 46 0 5 7 9 16 9s27 11 39 24c39 42 68 56 99 48 40-11 173 4 221 25 52 22 162 101 169 122 3 9 15 30 26 46 11 17 25 42 31 58 6 15 15 27 20 27s9 12 9 26 7 32 15 40c8 9 15 31 15 50s7 46 17 60c14 22 16 61 17 285 0 236-1 262-17 270-21 12-24 79-3 79 32 0 32 343 0 375-8 7-14 23-14 34 0 12-6 21-15 21-8 0-15 6-15 14 0 17-87 126-101 126-24 0-79 86-79 124 0 12-7 31-15 42-8 10-15 26-15 35s-7 22-15 29-15 20-15 29-14 29-30 45c-17 16-30 38-30 48s-4 18-9 18-21 20-35 45c-15 25-31 45-36 45-6 0-10 8-10 19 0 10-7 24-15 31-9 8-15 30-15 59 0 37 6 54 31 84 17 20 37 37 46 37 8 0 27 6 41 14 15 8 74 23 132 35 153 29 204 42 214 52 6 5 24 9 42 9 17 0 37 7 44 15s22 15 35 15c20 0 60 15 107 41 10 5 24 9 31 9 8 0 36 12 63 26 90 48 99 52 139 70 22 9 53 28 68 40 16 13 33 24 39 24 33 0 253 203 263 242 4 15 16 30 26 33 18 6 19 20 19 257v251l-42 39c-24 21-63 47-88 59-25 11-67 31-95 44-27 13-75 31-105 40l-93 31c-20 8-48 14-62 14-13 0-27 5-30 10-3 6-25 10-48 10-24 0-51 6-62 14-11 7-40 16-65 19s-81 13-125 22-128 22-187 29c-59 6-113 17-120 24-19 19-1593 15-1628-4z"/></svg>