<svg xmlns="http://www.w3.org/2000/svg" width="512" height="512"><path d="M505.639 323.252a16.698 16.698 0 0 0-15.9-11.6h-50.087V16.696c0-9.22-7.475-16.696-16.696-16.696H89.044c-9.22 0-16.696 7.475-16.696 16.696v294.956H22.261a16.696 16.696 0 0 0-9.705 30.281l233.74 166.957a16.673 16.673 0 0 0 9.705 3.11c3.4 0 6.802-1.036 9.705-3.11l233.739-166.956a16.7 16.7 0 0 0 6.194-18.682zM256 474.786L74.359 345.043h14.684c9.22 0 16.696-7.475 16.696-16.696V33.391h300.522v294.957c0 9.22 7.475 16.696 16.696 16.696h14.684L256 474.786z" fill="#333"/><path d="M189.218 55.652c-27.618 0-50.087 22.469-50.087 50.087 0 27.618 22.469 50.087 50.087 50.087 27.618 0 50.087-22.469 50.087-50.087 0-27.618-22.469-50.087-50.087-50.087zm0 66.783c-9.206 0-16.696-7.49-16.696-16.696s7.49-16.696 16.696-16.696 16.696 7.49 16.696 16.696-7.49 16.696-16.696 16.696zm133.565 66.782c-27.618 0-50.087 22.469-50.087 50.087 0 27.618 22.469 50.087 50.087 50.087s50.087-22.469 50.087-50.087c0-27.618-22.469-50.087-50.087-50.087zm0 66.783c-9.206 0-16.696-7.49-16.696-16.696 0-9.206 7.49-16.696 16.696-16.696 9.206 0 16.696 7.49 16.696 16.696 0 9.206-7.49 16.696-16.696 16.696zm15.852-166.107c-6.519-6.52-17.091-6.52-23.611 0L173.357 231.56c-6.52 6.52-6.52 17.091 0 23.611a16.644 16.644 0 0 0 11.805 4.891c4.272 0 8.546-1.63 11.805-4.891l141.667-141.667c6.521-6.52 6.521-17.091.001-23.611z" fill="#333"/></svg>