<svg xmlns="http://www.w3.org/2000/svg" viewBox="0 0 490.615 490.615"><path d="M0 475.876L475.525.351l14.425 14.425L14.425 490.301 0 475.876zm106.915-262.968c58.7 0 106.3-47.6 106.3-106.3s-47.6-106.3-106.3-106.3-106.3 47.6-106.3 106.3 47.6 106.3 106.3 106.3zm0-192.5c47.6 0 86.2 38.6 86.2 86.2s-38.6 86.2-86.2 86.2-86.2-38.6-86.2-86.2 38.6-86.2 86.2-86.2zm277.4 257.3c-58.7 0-106.3 47.6-106.3 106.3s47.6 106.3 106.3 106.3 106.3-47.6 106.3-106.3-47.6-106.3-106.3-106.3zm0 192.5c-47.6 0-86.2-38.6-86.2-86.2s38.6-86.2 86.2-86.2 86.2 38.6 86.2 86.2-38.6 86.2-86.2 86.2z"/></svg>