<svg xmlns="http://www.w3.org/2000/svg" xmlns:xlink="http://www.w3.org/1999/xlink"><symbol id="icon-skype" viewBox="0 0 18.61 18.61">
<g>
	<path d="M17.973,10.617c0.059-0.427,0.089-0.846,0.089-1.251c0-2.437-0.846-4.544-2.513-6.263   c-1.685-1.735-3.755-2.615-6.152-2.615c-0.279,0-0.546,0.013-0.801,0.038C7.84,0.176,7.028,0,6.17,0   C4.561,0,3.117,0.61,1.996,1.765C0.891,2.9,0.305,4.35,0.305,5.957c0,0.832,0.156,1.619,0.466,2.348   c-0.047,0.357-0.07,0.713-0.07,1.062c0,2.438,0.853,4.547,2.532,6.267c1.693,1.732,3.768,2.61,6.164,2.61   c0.254,0,0.547-0.02,0.896-0.06c0.69,0.283,1.409,0.426,2.146,0.426c1.588,0,3.025-0.614,4.157-1.777   c1.117-1.143,1.709-2.6,1.709-4.211C18.305,11.945,18.194,11.273,17.973,10.617z M12.805,12.653   c-0.284,0.427-0.729,0.781-1.339,1.065c-0.609,0.243-1.31,0.365-2.1,0.365c-0.954,0-1.756-0.173-2.404-0.519   c-0.467-0.262-0.833-0.598-1.096-1.003c-0.284-0.447-0.428-0.862-0.428-1.248c0-0.243,0.092-0.457,0.274-0.639   c0.184-0.184,0.416-0.274,0.7-0.274c0.203,0,0.406,0.072,0.609,0.213c0.162,0.162,0.283,0.366,0.364,0.609   c0.021,0.02,0.153,0.253,0.396,0.7c0.102,0.141,0.284,0.283,0.547,0.425c0.245,0.122,0.568,0.183,0.975,0.183   c0.548,0,1.005-0.121,1.37-0.364c0.324-0.224,0.486-0.507,0.486-0.853c0-0.284-0.092-0.498-0.274-0.639   c-0.183-0.184-0.415-0.324-0.699-0.427c-0.081-0.021-0.188-0.047-0.319-0.075c-0.133-0.031-0.285-0.071-0.457-0.123   C9.238,9.998,9.09,9.963,8.969,9.943C8.28,9.802,7.692,9.619,7.203,9.395C6.777,9.233,6.392,8.95,6.047,8.544   c-0.283-0.386-0.426-0.843-0.426-1.37c0-0.528,0.152-0.994,0.457-1.4c0.304-0.406,0.74-0.711,1.308-0.913   c0.569-0.224,1.219-0.334,1.949-0.334c0.548,0,1.066,0.07,1.552,0.213c0.468,0.162,0.843,0.355,1.127,0.579   c0.263,0.243,0.477,0.486,0.639,0.729c0.142,0.324,0.214,0.589,0.214,0.791c0,0.265-0.092,0.488-0.275,0.669   c-0.201,0.204-0.436,0.306-0.699,0.306c-0.223,0-0.416-0.061-0.578-0.184c-0.102-0.101-0.233-0.283-0.396-0.547   c-0.121-0.284-0.314-0.537-0.577-0.762c-0.243-0.182-0.619-0.273-1.127-0.273c-0.507,0-0.892,0.102-1.156,0.305   C7.775,6.537,7.633,6.749,7.633,6.992c0,0.162,0.05,0.296,0.152,0.396c0.102,0.143,0.232,0.255,0.396,0.336   c0.102,0.06,0.274,0.132,0.518,0.212c0.061,0.021,0.197,0.057,0.41,0.106C9.322,8.095,9.5,8.129,9.642,8.149   c0.283,0.061,0.771,0.192,1.461,0.396c0.406,0.141,0.791,0.323,1.156,0.548c0.346,0.242,0.599,0.517,0.762,0.82   c0.162,0.365,0.242,0.771,0.242,1.217C13.261,11.678,13.109,12.186,12.805,12.653z"/>
</g>
<g>
</g>
<g>
</g>
<g>
</g>
<g>
</g>
<g>
</g>
<g>
</g>
<g>
</g>
<g>
</g>
<g>
</g>
<g>
</g>
<g>
</g>
<g>
</g>
<g>
</g>
<g>
</g>
<g>
</g>
</symbol><symbol id="icon-telegram" viewBox="0 0 300 300">
<g id="XMLID_496_">
	<path id="XMLID_497_" d="M5.299,144.645l69.126,25.8l26.756,86.047c1.712,5.511,8.451,7.548,12.924,3.891l38.532-31.412   c4.039-3.291,9.792-3.455,14.013-0.391l69.498,50.457c4.785,3.478,11.564,0.856,12.764-4.926L299.823,29.22   c1.31-6.316-4.896-11.585-10.91-9.259L5.218,129.402C-1.783,132.102-1.722,142.014,5.299,144.645z M96.869,156.711l135.098-83.207   c2.428-1.491,4.926,1.792,2.841,3.726L123.313,180.87c-3.919,3.648-6.447,8.53-7.163,13.829l-3.798,28.146   c-0.503,3.758-5.782,4.131-6.819,0.494l-14.607-51.325C89.253,166.16,91.691,159.907,96.869,156.711z"/>
</g>
<g>
</g>
<g>
</g>
<g>
</g>
<g>
</g>
<g>
</g>
<g>
</g>
<g>
</g>
<g>
</g>
<g>
</g>
<g>
</g>
<g>
</g>
<g>
</g>
<g>
</g>
<g>
</g>
<g>
</g>
</symbol><symbol id="icon-viber" viewBox="0 0 52.511 52.511">
<g>
	<g>
		<path d="M31.256,0H21.254C10.778,0,2.255,8.521,2.255,18.995v9.01c0,7.8,4.793,14.81,12,17.665v5.841    c0,0.396,0.233,0.754,0.595,0.914c0.13,0.058,0.268,0.086,0.405,0.086c0.243,0,0.484-0.089,0.671-0.259L21.725,47h9.531    c10.476,0,18.999-8.521,18.999-18.995v-9.01C50.255,8.521,41.732,0,31.256,0z M48.255,28.005C48.255,37.376,40.63,45,31.256,45    h-9.917c-0.248,0-0.487,0.092-0.671,0.259l-4.413,3.997v-4.279c0-0.424-0.267-0.802-0.667-0.942    C8.81,41.638,4.255,35.196,4.255,28.005v-9.01C4.255,9.624,11.881,2,21.254,2h10.002c9.374,0,16.999,7.624,16.999,16.995V28.005z" fill="#FFFFFF"/>
		<path d="M39.471,30.493l-6.146-3.992c-0.672-0.437-1.472-0.585-2.255-0.423c-0.784,0.165-1.458,0.628-1.895,1.303l-0.289,0.444    c-2.66-0.879-5.593-2.002-7.349-7.085l0.727-0.632h0c1.248-1.085,1.379-2.983,0.294-4.233l-4.808-5.531    c-0.362-0.417-0.994-0.46-1.411-0.099l-3.019,2.624c-2.648,2.302-1.411,5.707-1.004,6.826c0.018,0.05,0.04,0.098,0.066,0.145    c0.105,0.188,2.612,4.662,6.661,8.786c4.065,4.141,11.404,7.965,11.629,8.076c0.838,0.544,1.781,0.805,2.714,0.805    c1.638,0,3.244-0.803,4.202-2.275l2.178-3.354C40.066,31.413,39.934,30.794,39.471,30.493z M35.91,34.142    c-0.901,1.388-2.763,1.782-4.233,0.834c-0.073-0.038-7.364-3.835-11.207-7.75c-3.592-3.659-5.977-7.724-6.302-8.291    c-0.792-2.221-0.652-3.586,0.464-4.556l2.265-1.968l4.152,4.776c0.369,0.424,0.326,1.044-0.096,1.411l-1.227,1.066    c-0.299,0.26-0.417,0.671-0.3,1.049c2.092,6.798,6.16,8.133,9.13,9.108l0.433,0.143c0.433,0.146,0.907-0.021,1.155-0.403    l0.709-1.092c0.146-0.226,0.37-0.379,0.63-0.434c0.261-0.056,0.527-0.004,0.753,0.143l5.308,3.447L35.91,34.142z" fill="#FFFFFF"/>
		<path d="M28.538,16.247c-0.532-0.153-1.085,0.156-1.236,0.688c-0.151,0.531,0.157,1.084,0.688,1.235    c1.49,0.424,2.677,1.613,3.097,3.104c0.124,0.44,0.525,0.729,0.962,0.729c0.09,0,0.181-0.012,0.272-0.037    c0.531-0.15,0.841-0.702,0.691-1.234C32.405,18.578,30.69,16.859,28.538,16.247z" fill="#FFFFFF"/>
		<path d="M36.148,22.219c0.09,0,0.181-0.012,0.272-0.037c0.532-0.15,0.841-0.703,0.691-1.234c-1.18-4.183-4.509-7.519-8.689-8.709    c-0.531-0.153-1.084,0.158-1.235,0.689c-0.151,0.531,0.157,1.084,0.688,1.235c3.517,1,6.318,3.809,7.311,7.328    C35.311,21.931,35.711,22.219,36.148,22.219z" fill="#FFFFFF"/>
		<path d="M27.991,7.582c-0.532-0.153-1.085,0.156-1.236,0.689c-0.151,0.531,0.157,1.084,0.688,1.235    c5.959,1.695,10.706,6.453,12.388,12.416c0.124,0.44,0.525,0.729,0.962,0.729c0.09,0,0.181-0.012,0.272-0.037    c0.531-0.15,0.841-0.703,0.691-1.234C39.887,14.753,34.613,9.467,27.991,7.582z" fill="#FFFFFF"/>
	</g>
</g>
<g>
</g>
<g>
</g>
<g>
</g>
<g>
</g>
<g>
</g>
<g>
</g>
<g>
</g>
<g>
</g>
<g>
</g>
<g>
</g>
<g>
</g>
<g>
</g>
<g>
</g>
<g>
</g>
<g>
</g>
</symbol></svg>